<svg width="1060" height="448" viewBox="0 0 1060 448" fill="none" xmlns="http://www.w3.org/2000/svg">
<g clip-path="url(#clip0_1_35)">
<mask id="mask0_1_35" style="mask-type:luminance" maskUnits="userSpaceOnUse" x="0" y="0" width="1060" height="448">
<path d="M1060 0H0V448H1060V0Z" fill="white"/>
</mask>
<g mask="url(#mask0_1_35)">
<path d="M1060 0H0V448H1060V0Z" fill="white"/>
<path d="M81.1 326.725L71.83 358H66.025L59.455 334.33L52.48 358L46.72 358.045L37.855 326.725H43.3L49.78 352.195L56.8 326.725H62.56L69.085 352.06L75.61 326.725H81.1ZM90.4611 330.865V340.045H101.261V344.23H90.4611V353.815H102.611V358H85.3311V326.68H102.611V330.865H90.4611ZM139.474 351.61H126.379L124.129 358H118.774L129.979 326.68H135.919L147.124 358H141.724L139.474 351.61ZM138.034 347.425L132.949 332.89L127.819 347.425H138.034ZM168.241 358L161.041 345.49H157.126V358H151.996V326.725H162.796C165.196 326.725 167.221 327.145 168.871 327.985C170.551 328.825 171.796 329.95 172.606 331.36C173.446 332.77 173.866 334.345 173.866 336.085C173.866 338.125 173.266 339.985 172.066 341.665C170.896 343.315 169.081 344.44 166.621 345.04L174.361 358H168.241ZM157.126 341.395H162.796C164.716 341.395 166.156 340.915 167.116 339.955C168.106 338.995 168.601 337.705 168.601 336.085C168.601 334.465 168.121 333.205 167.161 332.305C166.201 331.375 164.746 330.91 162.796 330.91H157.126V341.395ZM185.559 330.865V340.045H196.359V344.23H185.559V353.815H197.709V358H180.429V326.68H197.709V330.865H185.559ZM237.587 336.04C237.587 337.63 237.212 339.13 236.462 340.54C235.712 341.95 234.512 343.105 232.862 344.005C231.212 344.875 229.097 345.31 226.517 345.31H220.847V358H215.717V326.725H226.517C228.917 326.725 230.942 327.145 232.592 327.985C234.272 328.795 235.517 329.905 236.327 331.315C237.167 332.725 237.587 334.3 237.587 336.04ZM226.517 341.125C228.467 341.125 229.922 340.69 230.882 339.82C231.842 338.92 232.322 337.66 232.322 336.04C232.322 332.62 230.387 330.91 226.517 330.91H220.847V341.125H226.517ZM258.724 358L251.524 345.49H247.609V358H242.479V326.725H253.279C255.679 326.725 257.704 327.145 259.354 327.985C261.034 328.825 262.279 329.95 263.089 331.36C263.929 332.77 264.349 334.345 264.349 336.085C264.349 338.125 263.749 339.985 262.549 341.665C261.379 343.315 259.564 344.44 257.104 345.04L264.844 358H258.724ZM247.609 341.395H253.279C255.199 341.395 256.639 340.915 257.599 339.955C258.589 338.995 259.084 337.705 259.084 336.085C259.084 334.465 258.604 333.205 257.644 332.305C256.684 331.375 255.229 330.91 253.279 330.91H247.609V341.395ZM285.177 358.315C282.267 358.315 279.582 357.64 277.122 356.29C274.692 354.91 272.757 353.005 271.317 350.575C269.907 348.115 269.202 345.355 269.202 342.295C269.202 339.235 269.907 336.49 271.317 334.06C272.757 331.63 274.692 329.74 277.122 328.39C279.582 327.01 282.267 326.32 285.177 326.32C288.117 326.32 290.802 327.01 293.232 328.39C295.692 329.74 297.627 331.63 299.037 334.06C300.447 336.49 301.152 339.235 301.152 342.295C301.152 345.355 300.447 348.115 299.037 350.575C297.627 353.005 295.692 354.91 293.232 356.29C290.802 357.64 288.117 358.315 285.177 358.315ZM285.177 353.86C287.247 353.86 289.092 353.395 290.712 352.465C292.332 351.505 293.592 350.155 294.492 348.415C295.422 346.645 295.887 344.605 295.887 342.295C295.887 339.985 295.422 337.96 294.492 336.22C293.592 334.48 292.332 333.145 290.712 332.215C289.092 331.285 287.247 330.82 285.177 330.82C283.107 330.82 281.262 331.285 279.642 332.215C278.022 333.145 276.747 334.48 275.817 336.22C274.917 337.96 274.467 339.985 274.467 342.295C274.467 344.605 274.917 346.645 275.817 348.415C276.747 350.155 278.022 351.505 279.642 352.465C281.262 353.395 283.107 353.86 285.177 353.86ZM333.155 326.725L321.41 358H315.47L303.68 326.725H309.17L318.44 352.735L327.755 326.725H333.155ZM342.575 326.725V358H337.445V326.725H342.575ZM359.526 326.725C362.856 326.725 365.766 327.37 368.256 328.66C370.776 329.92 372.711 331.75 374.061 334.15C375.441 336.52 376.131 339.295 376.131 342.475C376.131 345.655 375.441 348.415 374.061 350.755C372.711 353.095 370.776 354.895 368.256 356.155C365.766 357.385 362.856 358 359.526 358H349.311V326.725H359.526ZM359.526 353.815C363.186 353.815 365.991 352.825 367.941 350.845C369.891 348.865 370.866 346.075 370.866 342.475C370.866 338.845 369.891 336.01 367.941 333.97C365.991 331.93 363.186 330.91 359.526 330.91H354.441V353.815H359.526ZM386.345 326.725V358H381.215V326.725H386.345ZM418.775 358H413.645L398.21 334.645V358H393.08V326.68H398.21L413.645 349.99V326.68H418.775V358ZM448.147 335.725C447.337 334.165 446.212 332.995 444.772 332.215C443.332 331.405 441.667 331 439.777 331C437.707 331 435.862 331.465 434.242 332.395C432.622 333.325 431.347 334.645 430.417 336.355C429.517 338.065 429.067 340.045 429.067 342.295C429.067 344.545 429.517 346.54 430.417 348.28C431.347 349.99 432.622 351.31 434.242 352.24C435.862 353.17 437.707 353.635 439.777 353.635C442.567 353.635 444.832 352.855 446.572 351.295C448.312 349.735 449.377 347.62 449.767 344.95H438.022V340.855H455.257V344.86C454.927 347.29 454.057 349.525 452.647 351.565C451.267 353.605 449.452 355.24 447.202 356.47C444.982 357.67 442.507 358.27 439.777 358.27C436.837 358.27 434.152 357.595 431.722 356.245C429.292 354.865 427.357 352.96 425.917 350.53C424.507 348.1 423.802 345.355 423.802 342.295C423.802 339.235 424.507 336.49 425.917 334.06C427.357 331.63 429.292 329.74 431.722 328.39C434.182 327.01 436.867 326.32 439.777 326.32C443.107 326.32 446.062 327.145 448.642 328.795C451.252 330.415 453.142 332.725 454.312 335.725H448.147Z" fill="white"/>
<mask id="mask1_1_35" style="mask-type:luminance" maskUnits="userSpaceOnUse" x="36" y="325" width="421" height="35">
<path d="M457 325H36V360H457V325Z" fill="white"/>
<path d="M81.1 326.725L71.83 358H66.025L59.455 334.33L52.48 358L46.72 358.045L37.855 326.725H43.3L49.78 352.195L56.8 326.725H62.56L69.085 352.06L75.61 326.725H81.1ZM90.4611 330.865V340.045H101.261V344.23H90.4611V353.815H102.611V358H85.3311V326.68H102.611V330.865H90.4611ZM139.474 351.61H126.379L124.129 358H118.774L129.979 326.68H135.919L147.124 358H141.724L139.474 351.61ZM138.034 347.425L132.949 332.89L127.819 347.425H138.034ZM168.241 358L161.041 345.49H157.126V358H151.996V326.725H162.796C165.196 326.725 167.221 327.145 168.871 327.985C170.551 328.825 171.796 329.95 172.606 331.36C173.446 332.77 173.866 334.345 173.866 336.085C173.866 338.125 173.266 339.985 172.066 341.665C170.896 343.315 169.081 344.44 166.621 345.04L174.361 358H168.241ZM157.126 341.395H162.796C164.716 341.395 166.156 340.915 167.116 339.955C168.106 338.995 168.601 337.705 168.601 336.085C168.601 334.465 168.121 333.205 167.161 332.305C166.201 331.375 164.746 330.91 162.796 330.91H157.126V341.395ZM185.559 330.865V340.045H196.359V344.23H185.559V353.815H197.709V358H180.429V326.68H197.709V330.865H185.559ZM237.587 336.04C237.587 337.63 237.212 339.13 236.462 340.54C235.712 341.95 234.512 343.105 232.862 344.005C231.212 344.875 229.097 345.31 226.517 345.31H220.847V358H215.717V326.725H226.517C228.917 326.725 230.942 327.145 232.592 327.985C234.272 328.795 235.517 329.905 236.327 331.315C237.167 332.725 237.587 334.3 237.587 336.04ZM226.517 341.125C228.467 341.125 229.922 340.69 230.882 339.82C231.842 338.92 232.322 337.66 232.322 336.04C232.322 332.62 230.387 330.91 226.517 330.91H220.847V341.125H226.517ZM258.724 358L251.524 345.49H247.609V358H242.479V326.725H253.279C255.679 326.725 257.704 327.145 259.354 327.985C261.034 328.825 262.279 329.95 263.089 331.36C263.929 332.77 264.349 334.345 264.349 336.085C264.349 338.125 263.749 339.985 262.549 341.665C261.379 343.315 259.564 344.44 257.104 345.04L264.844 358H258.724ZM247.609 341.395H253.279C255.199 341.395 256.639 340.915 257.599 339.955C258.589 338.995 259.084 337.705 259.084 336.085C259.084 334.465 258.604 333.205 257.644 332.305C256.684 331.375 255.229 330.91 253.279 330.91H247.609V341.395ZM285.177 358.315C282.267 358.315 279.582 357.64 277.122 356.29C274.692 354.91 272.757 353.005 271.317 350.575C269.907 348.115 269.202 345.355 269.202 342.295C269.202 339.235 269.907 336.49 271.317 334.06C272.757 331.63 274.692 329.74 277.122 328.39C279.582 327.01 282.267 326.32 285.177 326.32C288.117 326.32 290.802 327.01 293.232 328.39C295.692 329.74 297.627 331.63 299.037 334.06C300.447 336.49 301.152 339.235 301.152 342.295C301.152 345.355 300.447 348.115 299.037 350.575C297.627 353.005 295.692 354.91 293.232 356.29C290.802 357.64 288.117 358.315 285.177 358.315ZM285.177 353.86C287.247 353.86 289.092 353.395 290.712 352.465C292.332 351.505 293.592 350.155 294.492 348.415C295.422 346.645 295.887 344.605 295.887 342.295C295.887 339.985 295.422 337.96 294.492 336.22C293.592 334.48 292.332 333.145 290.712 332.215C289.092 331.285 287.247 330.82 285.177 330.82C283.107 330.82 281.262 331.285 279.642 332.215C278.022 333.145 276.747 334.48 275.817 336.22C274.917 337.96 274.467 339.985 274.467 342.295C274.467 344.605 274.917 346.645 275.817 348.415C276.747 350.155 278.022 351.505 279.642 352.465C281.262 353.395 283.107 353.86 285.177 353.86ZM333.155 326.725L321.41 358H315.47L303.68 326.725H309.17L318.44 352.735L327.755 326.725H333.155ZM342.575 326.725V358H337.445V326.725H342.575ZM359.526 326.725C362.856 326.725 365.766 327.37 368.256 328.66C370.776 329.92 372.711 331.75 374.061 334.15C375.441 336.52 376.131 339.295 376.131 342.475C376.131 345.655 375.441 348.415 374.061 350.755C372.711 353.095 370.776 354.895 368.256 356.155C365.766 357.385 362.856 358 359.526 358H349.311V326.725H359.526ZM359.526 353.815C363.186 353.815 365.991 352.825 367.941 350.845C369.891 348.865 370.866 346.075 370.866 342.475C370.866 338.845 369.891 336.01 367.941 333.97C365.991 331.93 363.186 330.91 359.526 330.91H354.441V353.815H359.526ZM386.345 326.725V358H381.215V326.725H386.345ZM418.775 358H413.645L398.21 334.645V358H393.08V326.68H398.21L413.645 349.99V326.68H418.775V358ZM448.147 335.725C447.337 334.165 446.212 332.995 444.772 332.215C443.332 331.405 441.667 331 439.777 331C437.707 331 435.862 331.465 434.242 332.395C432.622 333.325 431.347 334.645 430.417 336.355C429.517 338.065 429.067 340.045 429.067 342.295C429.067 344.545 429.517 346.54 430.417 348.28C431.347 349.99 432.622 351.31 434.242 352.24C435.862 353.17 437.707 353.635 439.777 353.635C442.567 353.635 444.832 352.855 446.572 351.295C448.312 349.735 449.377 347.62 449.767 344.95H438.022V340.855H455.257V344.86C454.927 347.29 454.057 349.525 452.647 351.565C451.267 353.605 449.452 355.24 447.202 356.47C444.982 357.67 442.507 358.27 439.777 358.27C436.837 358.27 434.152 357.595 431.722 356.245C429.292 354.865 427.357 352.96 425.917 350.53C424.507 348.1 423.802 345.355 423.802 342.295C423.802 339.235 424.507 336.49 425.917 334.06C427.357 331.63 429.292 329.74 431.722 328.39C434.182 327.01 436.867 326.32 439.777 326.32C443.107 326.32 446.062 327.145 448.642 328.795C451.252 330.415 453.142 332.725 454.312 335.725H448.147Z" fill="black"/>
</mask>
<g mask="url(#mask1_1_35)">
<path d="M81.1 326.725L82.0588 327.009L82.4394 325.725H81.1V326.725ZM71.83 358V359H72.5766L72.7888 358.284L71.83 358ZM66.025 358L65.0614 358.267L65.2648 359H66.025V358ZM59.455 334.33L60.4186 334.063L59.4837 330.695L58.4958 334.047L59.455 334.33ZM52.48 358L52.4878 359L53.2296 358.994L53.4392 358.283L52.48 358ZM46.72 358.045L45.7578 358.317L45.9654 359.051L46.7278 359.045L46.72 358.045ZM37.855 326.725V325.725H36.5327L36.8928 326.997L37.855 326.725ZM43.3 326.725L44.2691 326.478L44.0774 325.725H43.3V326.725ZM49.78 352.195L48.8109 352.442L49.7413 356.099L50.7441 352.461L49.78 352.195ZM56.8 326.725V325.725H56.0383L55.8359 326.459L56.8 326.725ZM62.56 326.725L63.5284 326.476L63.3351 325.725H62.56V326.725ZM69.085 352.06L68.1166 352.309H70.0534L69.085 352.06ZM75.61 326.725V325.725H74.8349L74.6416 326.476L75.61 326.725ZM80.1412 326.441L70.8712 357.716L72.7888 358.284L82.0588 327.009L80.1412 326.441ZM71.83 357H66.025V359H71.83V357ZM66.9886 357.733L60.4186 334.063L58.4914 334.597L65.0614 358.267L66.9886 357.733ZM58.4958 334.047L51.5208 357.717L53.4392 358.283L60.4142 334.613L58.4958 334.047ZM52.4722 357L46.7122 357.045L46.7278 359.045L52.4878 359L52.4722 357ZM47.6822 357.773L38.8172 326.453L36.8928 326.997L45.7578 358.317L47.6822 357.773ZM37.855 327.725H43.3V325.725H37.855V327.725ZM42.3309 326.972L48.8109 352.442L50.7491 351.948L44.2691 326.478L42.3309 326.972ZM50.7441 352.461L57.7641 326.991L55.8359 326.459L48.8159 351.929L50.7441 352.461ZM56.8 327.725H62.56V325.725H56.8V327.725ZM61.5916 326.974L68.1166 352.309L70.0534 351.811L63.5284 326.476L61.5916 326.974ZM70.0534 352.309L76.5784 326.974L74.6416 326.476L68.1166 351.811L70.0534 352.309ZM75.61 327.725H81.1V325.725H75.61V327.725ZM90.4611 330.865V329.865H89.4611V330.865H90.4611ZM90.4611 340.045H89.4611V341.045H90.4611V340.045ZM101.261 340.045H102.261V339.045H101.261V340.045ZM101.261 344.23V345.23H102.261V344.23H101.261ZM90.4611 344.23V343.23H89.4611V344.23H90.4611ZM90.4611 353.815H89.4611V354.815H90.4611V353.815ZM102.611 353.815H103.611V352.815H102.611V353.815ZM102.611 358V359H103.611V358H102.611ZM85.3311 358H84.3311V359H85.3311V358ZM85.3311 326.68V325.68H84.3311V326.68H85.3311ZM102.611 326.68H103.611V325.68H102.611V326.68ZM102.611 330.865V331.865H103.611V330.865H102.611ZM89.4611 330.865V340.045H91.4611V330.865H89.4611ZM90.4611 341.045H101.261V339.045H90.4611V341.045ZM100.261 340.045V344.23H102.261V340.045H100.261ZM101.261 343.23H90.4611V345.23H101.261V343.23ZM89.4611 344.23V353.815H91.4611V344.23H89.4611ZM90.4611 354.815H102.611V352.815H90.4611V354.815ZM101.611 353.815V358H103.611V353.815H101.611ZM102.611 357H85.3311V359H102.611V357ZM86.3311 358V326.68H84.3311V358H86.3311ZM85.3311 327.68H102.611V325.68H85.3311V327.68ZM101.611 326.68V330.865H103.611V326.68H101.611ZM102.611 329.865H90.4611V331.865H102.611V329.865ZM139.474 351.61L140.417 351.278L140.182 350.61H139.474V351.61ZM126.379 351.61V350.61H125.671L125.436 351.278L126.379 351.61ZM124.129 358V359H124.837L125.072 358.332L124.129 358ZM118.774 358L117.833 357.663L117.354 359H118.774V358ZM129.979 326.68V325.68H129.275L129.038 326.343L129.979 326.68ZM135.919 326.68L136.861 326.343L136.623 325.68H135.919V326.68ZM147.124 358V359H148.544L148.066 357.663L147.124 358ZM141.724 358L140.781 358.332L141.016 359H141.724V358ZM138.034 347.425V348.425H139.443L138.978 347.095L138.034 347.425ZM132.949 332.89L133.893 332.56L132.953 329.874L132.006 332.557L132.949 332.89ZM127.819 347.425L126.876 347.092L126.406 348.425H127.819V347.425ZM139.474 350.61H126.379V352.61H139.474V350.61ZM125.436 351.278L123.186 357.668L125.072 358.332L127.322 351.942L125.436 351.278ZM124.129 357H118.774V359H124.129V357ZM119.716 358.337L130.921 327.017L129.038 326.343L117.833 357.663L119.716 358.337ZM129.979 327.68H135.919V325.68H129.979V327.68ZM134.978 327.017L146.183 358.337L148.066 357.663L136.861 326.343L134.978 327.017ZM147.124 357H141.724V359H147.124V357ZM142.667 357.668L140.417 351.278L138.531 351.942L140.781 358.332L142.667 357.668ZM138.978 347.095L133.893 332.56L132.005 333.22L137.09 347.755L138.978 347.095ZM132.006 332.557L126.876 347.092L128.762 347.758L133.892 333.223L132.006 332.557ZM127.819 348.425H138.034V346.425H127.819V348.425ZM168.241 358L167.374 358.499L167.663 359H168.241V358ZM161.041 345.49L161.908 344.991L161.619 344.49H161.041V345.49ZM157.126 345.49V344.49H156.126V345.49H157.126ZM157.126 358V359H158.126V358H157.126ZM151.996 358H150.996V359H151.996V358ZM151.996 326.725V325.725H150.996V326.725H151.996ZM168.871 327.985L168.417 328.876L168.424 328.879L168.871 327.985ZM172.606 331.36L171.739 331.858L171.743 331.865L171.747 331.872L172.606 331.36ZM172.066 341.665L171.252 341.084L171.25 341.087L172.066 341.665ZM166.621 345.04L166.384 344.068L165.068 344.39L165.763 345.553L166.621 345.04ZM174.361 358V359H176.123L175.22 357.487L174.361 358ZM157.126 341.395H156.126V342.395H157.126V341.395ZM167.116 339.955L166.42 339.237L166.414 339.242L166.409 339.248L167.116 339.955ZM167.161 332.305L166.465 333.023L166.471 333.029L166.477 333.035L167.161 332.305ZM157.126 330.91V329.91H156.126V330.91H157.126ZM169.108 357.501L161.908 344.991L160.174 345.989L167.374 358.499L169.108 357.501ZM161.041 344.49H157.126V346.49H161.041V344.49ZM156.126 345.49V358H158.126V345.49H156.126ZM157.126 357H151.996V359H157.126V357ZM152.996 358V326.725H150.996V358H152.996ZM151.996 327.725H162.796V325.725H151.996V327.725ZM162.796 327.725C165.084 327.725 166.943 328.126 168.417 328.876L169.325 327.094C167.499 326.164 165.309 325.725 162.796 325.725V327.725ZM168.424 328.879C169.956 329.645 171.041 330.644 171.739 331.858L173.473 330.862C172.551 329.256 171.146 328.005 169.318 327.091L168.424 328.879ZM171.747 331.872C172.489 333.118 172.866 334.514 172.866 336.085H174.866C174.866 334.176 174.403 332.422 173.465 330.848L171.747 331.872ZM172.866 336.085C172.866 337.914 172.333 339.571 171.252 341.084L172.88 342.246C174.199 340.399 174.866 338.336 174.866 336.085H172.866ZM171.25 341.087C170.252 342.494 168.671 343.511 166.384 344.068L166.858 346.012C169.491 345.369 171.54 344.136 172.882 342.243L171.25 341.087ZM165.763 345.553L173.503 358.513L175.22 357.487L167.48 344.527L165.763 345.553ZM174.361 357H168.241V359H174.361V357ZM157.126 342.395H162.796V340.395H157.126V342.395ZM162.796 342.395C164.87 342.395 166.61 341.876 167.823 340.662L166.409 339.248C165.703 339.954 164.562 340.395 162.796 340.395V342.395ZM167.812 340.673C169.03 339.492 169.601 337.924 169.601 336.085H167.601C167.601 337.486 167.182 338.498 166.42 339.237L167.812 340.673ZM169.601 336.085C169.601 334.257 169.052 332.707 167.845 331.575L166.477 333.035C167.19 333.703 167.601 334.673 167.601 336.085H169.601ZM167.857 331.587C166.64 330.408 164.887 329.91 162.796 329.91V331.91C164.605 331.91 165.762 332.342 166.465 333.023L167.857 331.587ZM162.796 329.91H157.126V331.91H162.796V329.91ZM156.126 330.91V341.395H158.126V330.91H156.126ZM185.559 330.865V329.865H184.559V330.865H185.559ZM185.559 340.045H184.559V341.045H185.559V340.045ZM196.359 340.045H197.359V339.045H196.359V340.045ZM196.359 344.23V345.23H197.359V344.23H196.359ZM185.559 344.23V343.23H184.559V344.23H185.559ZM185.559 353.815H184.559V354.815H185.559V353.815ZM197.709 353.815H198.709V352.815H197.709V353.815ZM197.709 358V359H198.709V358H197.709ZM180.429 358H179.429V359H180.429V358ZM180.429 326.68V325.68H179.429V326.68H180.429ZM197.709 326.68H198.709V325.68H197.709V326.68ZM197.709 330.865V331.865H198.709V330.865H197.709ZM184.559 330.865V340.045H186.559V330.865H184.559ZM185.559 341.045H196.359V339.045H185.559V341.045ZM195.359 340.045V344.23H197.359V340.045H195.359ZM196.359 343.23H185.559V345.23H196.359V343.23ZM184.559 344.23V353.815H186.559V344.23H184.559ZM185.559 354.815H197.709V352.815H185.559V354.815ZM196.709 353.815V358H198.709V353.815H196.709ZM197.709 357H180.429V359H197.709V357ZM181.429 358V326.68H179.429V358H181.429ZM180.429 327.68H197.709V325.68H180.429V327.68ZM196.709 326.68V330.865H198.709V326.68H196.709ZM197.709 329.865H185.559V331.865H197.709V329.865ZM232.862 344.005L233.328 344.89L233.341 344.883L232.862 344.005ZM220.847 345.31V344.31H219.847V345.31H220.847ZM220.847 358V359H221.847V358H220.847ZM215.717 358H214.717V359H215.717V358ZM215.717 326.725V325.725H214.717V326.725H215.717ZM232.592 327.985L232.138 328.876L232.148 328.881L232.157 328.886L232.592 327.985ZM236.327 331.315L235.46 331.813L235.464 331.82L235.468 331.827L236.327 331.315ZM230.882 339.82L231.553 340.561L231.56 340.555L231.566 340.55L230.882 339.82ZM220.847 330.91V329.91H219.847V330.91H220.847ZM220.847 341.125H219.847V342.125H220.847V341.125ZM236.587 336.04C236.587 337.465 236.252 338.804 235.579 340.07L237.345 341.01C238.171 339.456 238.587 337.795 238.587 336.04H236.587ZM235.579 340.07C234.936 341.279 233.892 342.304 232.383 343.127L233.341 344.883C235.131 343.906 236.488 342.621 237.345 341.01L235.579 340.07ZM232.395 343.12C230.934 343.891 228.993 344.31 226.517 344.31V346.31C229.2 346.31 231.49 345.859 233.328 344.89L232.395 343.12ZM226.517 344.31H220.847V346.31H226.517V344.31ZM219.847 345.31V358H221.847V345.31H219.847ZM220.847 357H215.717V359H220.847V357ZM216.717 358V326.725H214.717V358H216.717ZM215.717 327.725H226.517V325.725H215.717V327.725ZM226.517 327.725C228.804 327.725 230.664 328.126 232.138 328.876L233.045 327.094C231.22 326.164 229.029 325.725 226.517 325.725V327.725ZM232.157 328.886C233.683 329.622 234.764 330.603 235.46 331.813L237.194 330.817C236.269 329.207 234.86 327.968 233.026 327.084L232.157 328.886ZM235.468 331.827C236.21 333.073 236.587 334.469 236.587 336.04H238.587C238.587 334.131 238.124 332.377 237.186 330.803L235.468 331.827ZM226.517 342.125C228.593 342.125 230.336 341.665 231.553 340.561L230.21 339.079C229.508 339.715 228.341 340.125 226.517 340.125V342.125ZM231.566 340.55C232.772 339.418 233.322 337.868 233.322 336.04H231.322C231.322 337.452 230.911 338.422 230.198 339.09L231.566 340.55ZM233.322 336.04C233.322 334.142 232.779 332.545 231.533 331.443C230.31 330.363 228.578 329.91 226.517 329.91V331.91C228.326 331.91 229.496 332.312 230.208 332.942C230.897 333.55 231.322 334.518 231.322 336.04H233.322ZM226.517 329.91H220.847V331.91H226.517V329.91ZM219.847 330.91V341.125H221.847V330.91H219.847ZM220.847 342.125H226.517V340.125H220.847V342.125ZM258.724 358L257.858 358.499L258.146 359H258.724V358ZM251.524 345.49L252.391 344.991L252.103 344.49H251.524V345.49ZM247.609 345.49V344.49H246.609V345.49H247.609ZM247.609 358V359H248.609V358H247.609ZM242.479 358H241.479V359H242.479V358ZM242.479 326.725V325.725H241.479V326.725H242.479ZM259.354 327.985L258.901 328.876L258.907 328.879L259.354 327.985ZM263.089 331.36L262.222 331.858L262.226 331.865L262.23 331.872L263.089 331.36ZM262.549 341.665L261.736 341.084L261.734 341.087L262.549 341.665ZM257.104 345.04L256.868 344.068L255.551 344.39L256.246 345.553L257.104 345.04ZM264.844 358V359H266.606L265.703 357.487L264.844 358ZM247.609 341.395H246.609V342.395H247.609V341.395ZM257.599 339.955L256.903 339.237L256.898 339.242L256.892 339.248L257.599 339.955ZM257.644 332.305L256.949 333.023L256.955 333.029L256.961 333.035L257.644 332.305ZM247.609 330.91V329.91H246.609V330.91H247.609ZM259.591 357.501L252.391 344.991L250.658 345.989L257.858 358.499L259.591 357.501ZM251.524 344.49H247.609V346.49H251.524V344.49ZM246.609 345.49V358H248.609V345.49H246.609ZM247.609 357H242.479V359H247.609V357ZM243.479 358V326.725H241.479V358H243.479ZM242.479 327.725H253.279V325.725H242.479V327.725ZM253.279 327.725C255.567 327.725 257.427 328.126 258.901 328.876L259.808 327.094C257.982 326.164 255.792 325.725 253.279 325.725V327.725ZM258.907 328.879C260.439 329.645 261.525 330.644 262.222 331.858L263.957 330.862C263.034 329.256 261.63 328.005 259.802 327.091L258.907 328.879ZM262.23 331.872C262.973 333.118 263.349 334.514 263.349 336.085H265.349C265.349 334.176 264.886 332.422 263.949 330.848L262.23 331.872ZM263.349 336.085C263.349 337.914 262.816 339.571 261.736 341.084L263.363 342.246C264.683 340.399 265.349 338.336 265.349 336.085H263.349ZM261.734 341.087C260.735 342.494 259.154 343.511 256.868 344.068L257.341 346.012C259.974 345.369 262.023 344.136 263.365 342.243L261.734 341.087ZM256.246 345.553L263.986 358.513L265.703 357.487L257.963 344.527L256.246 345.553ZM264.844 357H258.724V359H264.844V357ZM247.609 342.395H253.279V340.395H247.609V342.395ZM253.279 342.395C255.354 342.395 257.093 341.876 258.307 340.662L256.892 339.248C256.186 339.954 255.045 340.395 253.279 340.395V342.395ZM258.296 340.673C259.514 339.492 260.084 337.924 260.084 336.085H258.084C258.084 337.486 257.665 338.498 256.903 339.237L258.296 340.673ZM260.084 336.085C260.084 334.257 259.535 332.707 258.328 331.575L256.961 333.035C257.674 333.703 258.084 334.673 258.084 336.085H260.084ZM258.34 331.587C257.123 330.408 255.371 329.91 253.279 329.91V331.91C255.088 331.91 256.246 332.342 256.949 333.023L258.34 331.587ZM253.279 329.91H247.609V331.91H253.279V329.91ZM246.609 330.91V341.395H248.609V330.91H246.609ZM277.122 356.29L276.628 357.16L276.635 357.163L276.641 357.167L277.122 356.29ZM271.317 350.575L270.45 351.072L270.453 351.079L270.457 351.085L271.317 350.575ZM271.317 334.06L270.457 333.55L270.452 333.558L271.317 334.06ZM277.122 328.39L277.608 329.264L277.611 329.262L277.122 328.39ZM293.232 328.39L292.738 329.26L292.745 329.263L292.751 329.267L293.232 328.39ZM299.037 350.575L299.902 351.077L299.905 351.072L299.037 350.575ZM293.232 356.29L293.718 357.164L293.721 357.162L293.232 356.29ZM290.712 352.465L291.21 353.332L291.222 353.325L290.712 352.465ZM294.492 348.415L293.607 347.95L293.604 347.956L294.492 348.415ZM294.492 336.22L293.604 336.679L293.61 336.691L294.492 336.22ZM275.817 336.22L274.935 335.749L274.929 335.761L275.817 336.22ZM275.817 348.415L274.926 348.868L274.93 348.877L274.935 348.886L275.817 348.415ZM279.642 352.465L279.132 353.325L279.144 353.332L279.642 352.465ZM285.177 357.315C282.429 357.315 279.91 356.679 277.603 355.413L276.641 357.167C279.254 358.601 282.105 359.315 285.177 359.315V357.315ZM277.616 355.42C275.339 354.127 273.53 352.347 272.177 350.065L270.457 351.085C271.985 353.663 274.045 355.693 276.628 357.16L277.616 355.42ZM272.185 350.078C270.868 347.781 270.202 345.195 270.202 342.295H268.202C268.202 345.515 268.946 348.449 270.45 351.072L272.185 350.078ZM270.202 342.295C270.202 339.395 270.868 336.826 272.182 334.562L270.452 333.558C268.946 336.154 268.202 339.075 268.202 342.295H270.202ZM272.177 334.57C273.529 332.29 275.335 330.527 277.608 329.264L276.636 327.516C274.049 328.953 271.986 330.97 270.457 333.55L272.177 334.57ZM277.611 329.262C279.917 327.969 282.433 327.32 285.177 327.32V325.32C282.101 325.32 279.247 326.051 276.633 327.518L277.611 329.262ZM285.177 327.32C287.953 327.32 290.467 327.97 292.738 329.26L293.726 327.52C291.137 326.05 288.281 325.32 285.177 325.32V327.32ZM292.751 329.267C295.051 330.529 296.853 332.289 298.172 334.562L299.902 333.558C298.401 330.971 296.333 328.951 293.713 327.513L292.751 329.267ZM298.172 334.562C299.486 336.826 300.152 339.395 300.152 342.295H302.152C302.152 339.075 301.408 336.154 299.902 333.558L298.172 334.562ZM300.152 342.295C300.152 345.195 299.486 347.781 298.17 350.078L299.905 351.072C301.408 348.449 302.152 345.515 302.152 342.295H300.152ZM298.172 350.073C296.852 352.348 295.047 354.125 292.743 355.418L293.721 357.162C296.337 355.695 298.402 353.662 299.902 351.077L298.172 350.073ZM292.746 355.416C290.474 356.679 287.957 357.315 285.177 357.315V359.315C288.277 359.315 291.131 358.601 293.718 357.164L292.746 355.416ZM285.177 354.86C287.402 354.86 289.423 354.358 291.21 353.332L290.214 351.598C288.762 352.432 287.092 352.86 285.177 352.86V354.86ZM291.222 353.325C293.01 352.266 294.398 350.774 295.38 348.874L293.604 347.956C292.786 349.536 291.654 350.744 290.202 351.605L291.222 353.325ZM295.377 348.88C296.394 346.946 296.887 344.742 296.887 342.295H294.887C294.887 344.468 294.451 346.344 293.607 347.95L295.377 348.88ZM296.887 342.295C296.887 339.849 296.394 337.657 295.374 335.749L293.61 336.691C294.45 338.263 294.887 340.121 294.887 342.295H296.887ZM295.38 335.761C294.397 333.859 293.005 332.378 291.21 331.348L290.214 333.082C291.659 333.912 292.788 335.101 293.604 336.679L295.38 335.761ZM291.21 331.348C289.423 330.322 287.402 329.82 285.177 329.82V331.82C287.092 331.82 288.762 332.248 290.214 333.082L291.21 331.348ZM285.177 329.82C282.952 329.82 280.932 330.322 279.144 331.348L280.14 333.082C281.593 332.248 283.262 331.82 285.177 331.82V329.82ZM279.144 331.348C277.352 332.376 275.948 333.853 274.935 335.749L276.699 336.691C277.546 335.107 278.692 333.914 280.14 333.082L279.144 331.348ZM274.929 335.761C273.943 337.666 273.467 339.854 273.467 342.295H275.467C275.467 340.116 275.891 338.254 276.705 336.679L274.929 335.761ZM273.467 342.295C273.467 344.737 273.944 346.937 274.926 348.868L276.708 347.962C275.891 346.353 275.467 344.473 275.467 342.295H273.467ZM274.935 348.886C275.947 350.78 277.347 352.268 279.132 353.325L280.152 351.605C278.697 350.742 277.547 349.53 276.699 347.944L274.935 348.886ZM279.144 353.332C280.932 354.358 282.952 354.86 285.177 354.86V352.86C283.262 352.86 281.593 352.432 280.14 351.598L279.144 353.332ZM333.155 326.725L334.091 327.077L334.599 325.725H333.155V326.725ZM321.41 358V359H322.103L322.346 358.352L321.41 358ZM315.47 358L314.534 358.353L314.778 359H315.47V358ZM303.68 326.725V325.725H302.235L302.744 327.078L303.68 326.725ZM309.17 326.725L310.112 326.389L309.875 325.725H309.17V326.725ZM318.44 352.735L317.498 353.071L318.438 355.707L319.382 353.072L318.44 352.735ZM327.755 326.725V325.725H327.051L326.814 326.388L327.755 326.725ZM332.219 326.373L320.474 357.648L322.346 358.352L334.091 327.077L332.219 326.373ZM321.41 357H315.47V359H321.41V357ZM316.406 357.647L304.616 326.372L302.744 327.078L314.534 358.353L316.406 357.647ZM303.68 327.725H309.17V325.725H303.68V327.725ZM308.228 327.061L317.498 353.071L319.382 352.399L310.112 326.389L308.228 327.061ZM319.382 353.072L328.697 327.062L326.814 326.388L317.499 352.398L319.382 353.072ZM327.755 327.725H333.155V325.725H327.755V327.725ZM342.575 326.725H343.575V325.725H342.575V326.725ZM342.575 358V359H343.575V358H342.575ZM337.445 358H336.445V359H337.445V358ZM337.445 326.725V325.725H336.445V326.725H337.445ZM341.575 326.725V358H343.575V326.725H341.575ZM342.575 357H337.445V359H342.575V357ZM338.445 358V326.725H336.445V358H338.445ZM337.445 327.725H342.575V325.725H337.445V327.725ZM368.256 328.66L367.796 329.548L367.802 329.551L367.808 329.554L368.256 328.66ZM374.061 334.15L373.189 334.64L373.193 334.647L373.196 334.653L374.061 334.15ZM374.061 350.755L373.199 350.247L373.194 350.255L374.061 350.755ZM368.256 356.155L368.698 357.052L368.703 357.049L368.256 356.155ZM349.311 358H348.311V359H349.311V358ZM349.311 326.725V325.725H348.311V326.725H349.311ZM354.441 330.91V329.91H353.441V330.91H354.441ZM354.441 353.815H353.441V354.815H354.441V353.815ZM359.526 327.725C362.725 327.725 365.472 328.344 367.796 329.548L368.716 327.772C366.059 326.396 362.986 325.725 359.526 325.725V327.725ZM367.808 329.554C370.154 330.727 371.939 332.419 373.189 334.64L374.932 333.66C373.482 331.081 371.397 329.113 368.703 327.766L367.808 329.554ZM373.196 334.653C374.474 336.847 375.131 339.443 375.131 342.475H377.131C377.131 339.147 376.407 336.192 374.925 333.647L373.196 334.653ZM375.131 342.475C375.131 345.507 374.474 348.085 373.199 350.247L374.922 351.263C376.407 348.745 377.131 345.803 377.131 342.475H375.131ZM373.194 350.255C371.947 352.418 370.161 354.084 367.808 355.261L368.703 357.049C371.39 355.706 373.474 353.772 374.927 351.255L373.194 350.255ZM367.813 355.258C365.485 356.408 362.732 357 359.526 357V359C362.979 359 366.046 358.362 368.698 357.052L367.813 355.258ZM359.526 357H349.311V359H359.526V357ZM350.311 358V326.725H348.311V358H350.311ZM349.311 327.725H359.526V325.725H349.311V327.725ZM359.526 354.815C363.365 354.815 366.461 353.772 368.653 351.547L367.228 350.143C365.52 351.878 363.006 352.815 359.526 352.815V354.815ZM368.653 351.547C370.837 349.329 371.866 346.257 371.866 342.475H369.866C369.866 345.893 368.944 348.401 367.228 350.143L368.653 351.547ZM371.866 342.475C371.866 338.664 370.838 335.554 368.663 333.279L367.218 334.661C368.943 336.466 369.866 339.026 369.866 342.475H371.866ZM368.663 333.279C366.473 330.988 363.373 329.91 359.526 329.91V331.91C362.998 331.91 365.508 332.872 367.218 334.661L368.663 333.279ZM359.526 329.91H354.441V331.91H359.526V329.91ZM353.441 330.91V353.815H355.441V330.91H353.441ZM354.441 354.815H359.526V352.815H354.441V354.815ZM386.345 326.725H387.345V325.725H386.345V326.725ZM386.345 358V359H387.345V358H386.345ZM381.215 358H380.215V359H381.215V358ZM381.215 326.725V325.725H380.215V326.725H381.215ZM385.345 326.725V358H387.345V326.725H385.345ZM386.345 357H381.215V359H386.345V357ZM382.215 358V326.725H380.215V358H382.215ZM381.215 327.725H386.345V325.725H381.215V327.725ZM418.775 358V359H419.775V358H418.775ZM413.645 358L412.811 358.551L413.107 359H413.645V358ZM398.21 334.645L399.044 334.094L397.21 331.318V334.645H398.21ZM398.21 358V359H399.21V358H398.21ZM393.08 358H392.08V359H393.08V358ZM393.08 326.68V325.68H392.08V326.68H393.08ZM398.21 326.68L399.044 326.128L398.747 325.68H398.21V326.68ZM413.645 349.99L412.811 350.542L414.645 353.311V349.99H413.645ZM413.645 326.68V325.68H412.645V326.68H413.645ZM418.775 326.68H419.775V325.68H418.775V326.68ZM418.775 357H413.645V359H418.775V357ZM414.479 357.449L399.044 334.094L397.376 335.196L412.811 358.551L414.479 357.449ZM397.21 334.645V358H399.21V334.645H397.21ZM398.21 357H393.08V359H398.21V357ZM394.08 358V326.68H392.08V358H394.08ZM393.08 327.68H398.21V325.68H393.08V327.68ZM397.376 327.232L412.811 350.542L414.479 349.438L399.044 326.128L397.376 327.232ZM414.645 349.99V326.68H412.645V349.99H414.645ZM413.645 327.68H418.775V325.68H413.645V327.68ZM417.775 326.68V358H419.775V326.68H417.775ZM448.147 335.725L447.259 336.186L447.539 336.725H448.147V335.725ZM444.772 332.215L444.281 333.087L444.288 333.09L444.295 333.094L444.772 332.215ZM430.417 336.355L429.538 335.877L429.532 335.889L430.417 336.355ZM430.417 348.28L429.529 348.739L429.533 348.749L429.538 348.758L430.417 348.28ZM449.767 344.95L450.756 345.095L450.923 343.95H449.767V344.95ZM438.022 344.95H437.022V345.95H438.022V344.95ZM438.022 340.855V339.855H437.022V340.855H438.022ZM455.257 340.855H456.257V339.855H455.257V340.855ZM455.257 344.86L456.248 344.995L456.257 344.928V344.86H455.257ZM452.647 351.565L451.824 350.996L451.818 351.005L452.647 351.565ZM447.202 356.47L447.677 357.35L447.681 357.347L447.202 356.47ZM431.722 356.245L431.228 357.115L431.236 357.119L431.722 356.245ZM425.917 350.53L425.052 351.032L425.056 351.04L425.917 350.53ZM425.917 334.06L425.056 333.55L425.052 333.558L425.917 334.06ZM431.722 328.39L432.207 329.264L432.211 329.262L431.722 328.39ZM448.642 328.795L448.103 329.638L448.114 329.645L448.642 328.795ZM454.312 335.725V336.725H455.775L455.243 335.362L454.312 335.725ZM449.034 335.264C448.139 333.54 446.877 332.218 445.248 331.336L444.295 333.094C445.547 333.772 446.534 334.79 447.259 336.186L449.034 335.264ZM445.262 331.343C443.652 330.438 441.813 330 439.777 330V332C441.52 332 443.012 332.372 444.281 333.087L445.262 331.343ZM439.777 330C437.551 330 435.531 330.502 433.744 331.528L434.74 333.262C436.192 332.428 437.862 332 439.777 332V330ZM433.744 331.528C431.956 332.554 430.553 334.012 429.538 335.877L431.295 336.833C432.141 335.278 433.287 334.096 434.74 333.262L433.744 331.528ZM429.532 335.889C428.545 337.765 428.067 339.909 428.067 342.295H430.067C430.067 340.181 430.489 338.365 431.302 336.821L429.532 335.889ZM428.067 342.295C428.067 344.681 428.545 346.838 429.529 348.739L431.305 347.821C430.489 346.242 430.067 344.409 430.067 342.295H428.067ZM429.538 348.758C430.553 350.623 431.956 352.081 433.744 353.107L434.74 351.373C433.287 350.539 432.141 349.357 431.295 347.802L429.538 348.758ZM433.744 353.107C435.531 354.133 437.551 354.635 439.777 354.635V352.635C437.862 352.635 436.192 352.207 434.74 351.373L433.744 353.107ZM439.777 354.635C442.763 354.635 445.281 353.795 447.239 352.04L445.904 350.55C444.382 351.915 442.371 352.635 439.777 352.635V354.635ZM447.239 352.04C449.18 350.3 450.338 347.958 450.756 345.095L448.777 344.805C448.416 347.282 447.444 349.17 445.904 350.55L447.239 352.04ZM449.767 343.95H438.022V345.95H449.767V343.95ZM439.022 344.95V340.855H437.022V344.95H439.022ZM438.022 341.855H455.257V339.855H438.022V341.855ZM454.257 340.855V344.86H456.257V340.855H454.257ZM454.266 344.725C453.957 346.998 453.146 349.084 451.824 350.996L453.469 352.134C454.968 349.966 455.896 347.582 456.248 344.995L454.266 344.725ZM451.818 351.005C450.531 352.907 448.838 354.436 446.722 355.593L447.681 357.347C450.065 356.044 452.002 354.303 453.475 352.125L451.818 351.005ZM446.726 355.59C444.664 356.705 442.355 357.27 439.777 357.27V359.27C442.659 359.27 445.299 358.635 447.677 357.35L446.726 355.59ZM439.777 357.27C436.997 357.27 434.48 356.634 432.207 355.371L431.236 357.119C433.823 358.556 436.677 359.27 439.777 359.27V357.27ZM432.216 355.375C429.939 354.082 428.129 352.302 426.777 350.02L425.056 351.04C426.584 353.618 428.645 355.648 431.228 357.115L432.216 355.375ZM426.782 350.028C425.468 347.764 424.802 345.195 424.802 342.295H422.802C422.802 345.515 423.546 348.436 425.052 351.032L426.782 350.028ZM424.802 342.295C424.802 339.395 425.468 336.826 426.782 334.562L425.052 333.558C423.546 336.154 422.802 339.075 422.802 342.295H424.802ZM426.777 334.57C428.128 332.29 429.935 330.527 432.207 329.264L431.236 327.516C428.649 328.953 426.585 330.97 425.056 333.55L426.777 334.57ZM432.211 329.262C434.517 327.969 437.032 327.32 439.777 327.32V325.32C436.701 325.32 433.847 326.051 431.232 327.518L432.211 329.262ZM439.777 327.32C442.933 327.32 445.698 328.099 448.103 329.637L449.18 327.953C446.426 326.191 443.28 325.32 439.777 325.32V327.32ZM448.114 329.645C450.531 331.145 452.285 333.28 453.38 336.088L455.243 335.362C453.999 332.17 451.972 329.685 449.169 327.945L448.114 329.645ZM454.312 334.725H448.147V336.725H454.312V334.725Z" fill="black"/>
</g>
<path d="M74.74 396.1C74.74 398.78 74.12 401.22 72.88 403.42C71.64 405.58 69.8 407.3 67.36 408.58C64.96 409.86 62.04 410.5 58.6 410.5H53.32V424H40V381.52H58.6C63.8 381.52 67.78 382.84 70.54 385.48C73.34 388.12 74.74 391.66 74.74 396.1ZM57.1 400C59.86 400 61.24 398.7 61.24 396.1C61.24 393.5 59.86 392.2 57.1 392.2H53.32V400H57.1ZM91.9848 381.52V405.46C91.9848 407.42 92.4048 408.98 93.2448 410.14C94.1248 411.26 95.5248 411.82 97.4448 411.82C99.3648 411.82 100.785 411.26 101.705 410.14C102.625 408.98 103.085 407.42 103.085 405.46V381.52H116.345V405.46C116.345 409.5 115.505 412.96 113.825 415.84C112.145 418.68 109.845 420.82 106.925 422.26C104.005 423.7 100.745 424.42 97.1448 424.42C93.5448 424.42 90.3448 423.7 87.5448 422.26C84.7848 420.82 82.6248 418.68 81.0648 415.84C79.5048 413 78.7248 409.54 78.7248 405.46V381.52H91.9848ZM143.45 424L135.47 408.76H135.41V424H122.09V381.52H141.89C145.33 381.52 148.27 382.14 150.71 383.38C153.15 384.58 154.97 386.24 156.17 388.36C157.41 390.44 158.03 392.8 158.03 395.44C158.03 398.28 157.23 400.8 155.63 403C154.07 405.2 151.81 406.78 148.85 407.74L158.09 424H143.45ZM135.41 399.88H140.69C141.97 399.88 142.93 399.6 143.57 399.04C144.21 398.44 144.53 397.52 144.53 396.28C144.53 395.16 144.19 394.28 143.51 393.64C142.87 393 141.93 392.68 140.69 392.68H135.41V399.88ZM175.605 392.14V397.36H188.805V407.38H175.605V413.38H190.605V424H162.285V381.52H190.605V392.14H175.605ZM240.56 396.1C240.56 398.78 239.94 401.22 238.7 403.42C237.46 405.58 235.62 407.3 233.18 408.58C230.78 409.86 227.86 410.5 224.42 410.5H219.14V424H205.82V381.52H224.42C229.62 381.52 233.6 382.84 236.36 385.48C239.16 388.12 240.56 391.66 240.56 396.1ZM222.92 400C225.68 400 227.06 398.7 227.06 396.1C227.06 393.5 225.68 392.2 222.92 392.2H219.14V400H222.92ZM266.145 424L258.165 408.76H258.105V424H244.785V381.52H264.585C268.025 381.52 270.965 382.14 273.405 383.38C275.845 384.58 277.665 386.24 278.865 388.36C280.105 390.44 280.725 392.8 280.725 395.44C280.725 398.28 279.925 400.8 278.325 403C276.765 405.2 274.505 406.78 271.545 407.74L280.785 424H266.145ZM258.105 399.88H263.385C264.665 399.88 265.625 399.6 266.265 399.04C266.905 398.44 267.225 397.52 267.225 396.28C267.225 395.16 266.885 394.28 266.205 393.64C265.565 393 264.625 392.68 263.385 392.68H258.105V399.88ZM305.68 424.42C301.68 424.42 298 423.48 294.64 421.6C291.32 419.72 288.68 417.12 286.72 413.8C284.76 410.48 283.78 406.74 283.78 402.58C283.78 398.42 284.76 394.68 286.72 391.36C288.68 388.04 291.32 385.46 294.64 383.62C298 381.74 301.68 380.8 305.68 380.8C309.68 380.8 313.34 381.74 316.66 383.62C319.98 385.46 322.6 388.04 324.52 391.36C326.48 394.68 327.46 398.42 327.46 402.58C327.46 406.74 326.48 410.48 324.52 413.8C322.6 417.12 319.96 419.72 316.6 421.6C313.28 423.48 309.64 424.42 305.68 424.42ZM305.68 412C308.32 412 310.36 411.16 311.8 409.48C313.24 407.76 313.96 405.46 313.96 402.58C313.96 399.66 313.24 397.36 311.8 395.68C310.36 393.96 308.32 393.1 305.68 393.1C303 393.1 300.94 393.96 299.5 395.68C298.06 397.36 297.34 399.66 297.34 402.58C297.34 405.46 298.06 407.76 299.5 409.48C300.94 411.16 303 412 305.68 412ZM331.066 402.7C331.066 398.5 331.906 394.76 333.586 391.48C335.306 388.2 337.746 385.66 340.906 383.86C344.066 382.02 347.786 381.1 352.066 381.1C355.746 381.1 359.026 381.8 361.906 383.2C364.826 384.56 367.186 386.5 368.986 389.02C370.826 391.54 372.046 394.48 372.646 397.84H358.606C357.966 396.44 357.046 395.36 355.846 394.6C354.686 393.8 353.346 393.4 351.826 393.4C349.586 393.4 347.806 394.24 346.486 395.92C345.206 397.6 344.566 399.86 344.566 402.7C344.566 405.54 345.206 407.8 346.486 409.48C347.806 411.16 349.586 412 351.826 412C353.346 412 354.686 411.62 355.846 410.86C357.046 410.06 357.966 408.96 358.606 407.56H372.646C372.046 410.92 370.826 413.86 368.986 416.38C367.186 418.9 364.826 420.86 361.906 422.26C359.026 423.62 355.746 424.3 352.066 424.3C347.786 424.3 344.066 423.4 340.906 421.6C337.746 419.76 335.306 417.2 333.586 413.92C331.906 410.64 331.066 406.9 331.066 402.7ZM390.761 392.14V397.36H403.961V407.38H390.761V413.38H405.761V424H377.441V381.52H405.761V392.14H390.761ZM427.401 424.42C422.321 424.42 418.121 423.24 414.801 420.88C411.521 418.48 409.741 414.98 409.461 410.38H423.621C423.821 412.82 424.901 414.04 426.861 414.04C427.581 414.04 428.181 413.88 428.661 413.56C429.181 413.2 429.441 412.66 429.441 411.94C429.441 410.94 428.901 410.14 427.821 409.54C426.741 408.9 425.061 408.18 422.781 407.38C420.061 406.42 417.801 405.48 416.001 404.56C414.241 403.64 412.721 402.3 411.441 400.54C410.161 398.78 409.541 396.52 409.581 393.76C409.581 391 410.281 388.66 411.681 386.74C413.121 384.78 415.061 383.3 417.501 382.3C419.981 381.3 422.761 380.8 425.841 380.8C431.041 380.8 435.161 382 438.201 384.4C441.281 386.8 442.901 390.18 443.061 394.54H428.721C428.681 393.34 428.381 392.48 427.821 391.96C427.261 391.44 426.581 391.18 425.781 391.18C425.221 391.18 424.761 391.38 424.401 391.78C424.041 392.14 423.861 392.66 423.861 393.34C423.861 394.3 424.381 395.1 425.421 395.74C426.501 396.34 428.201 397.08 430.521 397.96C433.201 398.96 435.401 399.92 437.121 400.84C438.881 401.76 440.401 403.04 441.681 404.68C442.961 406.32 443.601 408.38 443.601 410.86C443.601 413.46 442.961 415.8 441.681 417.88C440.401 419.92 438.541 421.52 436.101 422.68C433.661 423.84 430.761 424.42 427.401 424.42ZM464.901 424.42C459.821 424.42 455.621 423.24 452.301 420.88C449.021 418.48 447.241 414.98 446.961 410.38H461.121C461.321 412.82 462.401 414.04 464.361 414.04C465.081 414.04 465.681 413.88 466.161 413.56C466.681 413.2 466.941 412.66 466.941 411.94C466.941 410.94 466.401 410.14 465.321 409.54C464.241 408.9 462.561 408.18 460.281 407.38C457.561 406.42 455.301 405.48 453.501 404.56C451.741 403.64 450.221 402.3 448.941 400.54C447.661 398.78 447.041 396.52 447.081 393.76C447.081 391 447.781 388.66 449.181 386.74C450.621 384.78 452.561 383.3 455.001 382.3C457.481 381.3 460.261 380.8 463.341 380.8C468.541 380.8 472.661 382 475.701 384.4C478.781 386.8 480.401 390.18 480.561 394.54H466.221C466.181 393.34 465.881 392.48 465.321 391.96C464.761 391.44 464.081 391.18 463.281 391.18C462.721 391.18 462.261 391.38 461.901 391.78C461.541 392.14 461.361 392.66 461.361 393.34C461.361 394.3 461.881 395.1 462.921 395.74C464.001 396.34 465.701 397.08 468.021 397.96C470.701 398.96 472.901 399.92 474.621 400.84C476.381 401.76 477.901 403.04 479.181 404.68C480.461 406.32 481.101 408.38 481.101 410.86C481.101 413.46 480.461 415.8 479.181 417.88C477.901 419.92 476.041 421.52 473.601 422.68C471.161 423.84 468.261 424.42 464.901 424.42ZM499.101 392.14V397.36H512.301V407.38H499.101V413.38H514.101V424H485.781V381.52H514.101V392.14H499.101ZM536.821 381.52C541.261 381.52 545.141 382.42 548.461 384.22C551.821 386.02 554.401 388.52 556.201 391.72C558.001 394.92 558.901 398.56 558.901 402.64C558.901 406.68 558.001 410.32 556.201 413.56C554.401 416.8 551.821 419.36 548.461 421.24C545.141 423.08 541.261 424 536.821 424H519.121V381.52H536.821ZM535.621 412.12C538.621 412.12 541.001 411.3 542.761 409.66C544.521 408.02 545.401 405.68 545.401 402.64C545.401 399.6 544.521 397.26 542.761 395.62C541.001 393.98 538.621 393.16 535.621 393.16H532.441V412.12H535.621ZM635.106 381.52L625.386 424H608.826L603.906 399.88L598.986 424H582.426L572.706 381.52H587.046L590.886 408.28L596.646 381.52H611.166L616.926 408.28L620.766 381.52H635.106ZM660.583 424.42C656.583 424.42 652.903 423.48 649.543 421.6C646.223 419.72 643.583 417.12 641.623 413.8C639.663 410.48 638.683 406.74 638.683 402.58C638.683 398.42 639.663 394.68 641.623 391.36C643.583 388.04 646.223 385.46 649.543 383.62C652.903 381.74 656.583 380.8 660.583 380.8C664.583 380.8 668.243 381.74 671.563 383.62C674.883 385.46 677.503 388.04 679.423 391.36C681.383 394.68 682.363 398.42 682.363 402.58C682.363 406.74 681.383 410.48 679.423 413.8C677.503 417.12 674.863 419.72 671.503 421.6C668.183 423.48 664.543 424.42 660.583 424.42ZM660.583 412C663.223 412 665.263 411.16 666.703 409.48C668.143 407.76 668.863 405.46 668.863 402.58C668.863 399.66 668.143 397.36 666.703 395.68C665.263 393.96 663.223 393.1 660.583 393.1C657.903 393.1 655.843 393.96 654.403 395.68C652.963 397.36 652.243 399.66 652.243 402.58C652.243 405.46 652.963 407.76 654.403 409.48C655.843 411.16 657.903 412 660.583 412ZM708.528 424L700.548 408.76H700.488V424H687.168V381.52H706.968C710.408 381.52 713.348 382.14 715.788 383.38C718.228 384.58 720.048 386.24 721.248 388.36C722.488 390.44 723.108 392.8 723.108 395.44C723.108 398.28 722.308 400.8 720.708 403C719.148 405.2 716.888 406.78 713.928 407.74L723.168 424H708.528ZM700.488 399.88H705.768C707.048 399.88 708.008 399.6 708.648 399.04C709.288 398.44 709.608 397.52 709.608 396.28C709.608 395.16 709.268 394.28 708.588 393.64C707.948 393 707.008 392.68 705.768 392.68H700.488V399.88ZM753.043 424L740.683 405.58V424H727.363V381.52H740.683V399.4L752.863 381.52H767.923L753.283 401.86L768.883 424H753.043Z" fill="white"/>
<mask id="mask2_1_35" style="mask-type:luminance" maskUnits="userSpaceOnUse" x="39" y="379" width="732" height="47">
<path d="M771 379H39V426H771V379Z" fill="white"/>
<path d="M74.74 396.1C74.74 398.78 74.12 401.22 72.88 403.42C71.64 405.58 69.8 407.3 67.36 408.58C64.96 409.86 62.04 410.5 58.6 410.5H53.32V424H40V381.52H58.6C63.8 381.52 67.78 382.84 70.54 385.48C73.34 388.12 74.74 391.66 74.74 396.1ZM57.1 400C59.86 400 61.24 398.7 61.24 396.1C61.24 393.5 59.86 392.2 57.1 392.2H53.32V400H57.1ZM91.9848 381.52V405.46C91.9848 407.42 92.4048 408.98 93.2448 410.14C94.1248 411.26 95.5248 411.82 97.4448 411.82C99.3648 411.82 100.785 411.26 101.705 410.14C102.625 408.98 103.085 407.42 103.085 405.46V381.52H116.345V405.46C116.345 409.5 115.505 412.96 113.825 415.84C112.145 418.68 109.845 420.82 106.925 422.26C104.005 423.7 100.745 424.42 97.1448 424.42C93.5448 424.42 90.3448 423.7 87.5448 422.26C84.7848 420.82 82.6248 418.68 81.0648 415.84C79.5048 413 78.7248 409.54 78.7248 405.46V381.52H91.9848ZM143.45 424L135.47 408.76H135.41V424H122.09V381.52H141.89C145.33 381.52 148.27 382.14 150.71 383.38C153.15 384.58 154.97 386.24 156.17 388.36C157.41 390.44 158.03 392.8 158.03 395.44C158.03 398.28 157.23 400.8 155.63 403C154.07 405.2 151.81 406.78 148.85 407.74L158.09 424H143.45ZM135.41 399.88H140.69C141.97 399.88 142.93 399.6 143.57 399.04C144.21 398.44 144.53 397.52 144.53 396.28C144.53 395.16 144.19 394.28 143.51 393.64C142.87 393 141.93 392.68 140.69 392.68H135.41V399.88ZM175.605 392.14V397.36H188.805V407.38H175.605V413.38H190.605V424H162.285V381.52H190.605V392.14H175.605ZM240.56 396.1C240.56 398.78 239.94 401.22 238.7 403.42C237.46 405.58 235.62 407.3 233.18 408.58C230.78 409.86 227.86 410.5 224.42 410.5H219.14V424H205.82V381.52H224.42C229.62 381.52 233.6 382.84 236.36 385.48C239.16 388.12 240.56 391.66 240.56 396.1ZM222.92 400C225.68 400 227.06 398.7 227.06 396.1C227.06 393.5 225.68 392.2 222.92 392.2H219.14V400H222.92ZM266.145 424L258.165 408.76H258.105V424H244.785V381.52H264.585C268.025 381.52 270.965 382.14 273.405 383.38C275.845 384.58 277.665 386.24 278.865 388.36C280.105 390.44 280.725 392.8 280.725 395.44C280.725 398.28 279.925 400.8 278.325 403C276.765 405.2 274.505 406.78 271.545 407.74L280.785 424H266.145ZM258.105 399.88H263.385C264.665 399.88 265.625 399.6 266.265 399.04C266.905 398.44 267.225 397.52 267.225 396.28C267.225 395.16 266.885 394.28 266.205 393.64C265.565 393 264.625 392.68 263.385 392.68H258.105V399.88ZM305.68 424.42C301.68 424.42 298 423.48 294.64 421.6C291.32 419.72 288.68 417.12 286.72 413.8C284.76 410.48 283.78 406.74 283.78 402.58C283.78 398.42 284.76 394.68 286.72 391.36C288.68 388.04 291.32 385.46 294.64 383.62C298 381.74 301.68 380.8 305.68 380.8C309.68 380.8 313.34 381.74 316.66 383.62C319.98 385.46 322.6 388.04 324.52 391.36C326.48 394.68 327.46 398.42 327.46 402.58C327.46 406.74 326.48 410.48 324.52 413.8C322.6 417.12 319.96 419.72 316.6 421.6C313.28 423.48 309.64 424.42 305.68 424.42ZM305.68 412C308.32 412 310.36 411.16 311.8 409.48C313.24 407.76 313.96 405.46 313.96 402.58C313.96 399.66 313.24 397.36 311.8 395.68C310.36 393.96 308.32 393.1 305.68 393.1C303 393.1 300.94 393.96 299.5 395.68C298.06 397.36 297.34 399.66 297.34 402.58C297.34 405.46 298.06 407.76 299.5 409.48C300.94 411.16 303 412 305.68 412ZM331.066 402.7C331.066 398.5 331.906 394.76 333.586 391.48C335.306 388.2 337.746 385.66 340.906 383.86C344.066 382.02 347.786 381.1 352.066 381.1C355.746 381.1 359.026 381.8 361.906 383.2C364.826 384.56 367.186 386.5 368.986 389.02C370.826 391.54 372.046 394.48 372.646 397.84H358.606C357.966 396.44 357.046 395.36 355.846 394.6C354.686 393.8 353.346 393.4 351.826 393.4C349.586 393.4 347.806 394.24 346.486 395.92C345.206 397.6 344.566 399.86 344.566 402.7C344.566 405.54 345.206 407.8 346.486 409.48C347.806 411.16 349.586 412 351.826 412C353.346 412 354.686 411.62 355.846 410.86C357.046 410.06 357.966 408.96 358.606 407.56H372.646C372.046 410.92 370.826 413.86 368.986 416.38C367.186 418.9 364.826 420.86 361.906 422.26C359.026 423.62 355.746 424.3 352.066 424.3C347.786 424.3 344.066 423.4 340.906 421.6C337.746 419.76 335.306 417.2 333.586 413.92C331.906 410.64 331.066 406.9 331.066 402.7ZM390.761 392.14V397.36H403.961V407.38H390.761V413.38H405.761V424H377.441V381.52H405.761V392.14H390.761ZM427.401 424.42C422.321 424.42 418.121 423.24 414.801 420.88C411.521 418.48 409.741 414.98 409.461 410.38H423.621C423.821 412.82 424.901 414.04 426.861 414.04C427.581 414.04 428.181 413.88 428.661 413.56C429.181 413.2 429.441 412.66 429.441 411.94C429.441 410.94 428.901 410.14 427.821 409.54C426.741 408.9 425.061 408.18 422.781 407.38C420.061 406.42 417.801 405.48 416.001 404.56C414.241 403.64 412.721 402.3 411.441 400.54C410.161 398.78 409.541 396.52 409.581 393.76C409.581 391 410.281 388.66 411.681 386.74C413.121 384.78 415.061 383.3 417.501 382.3C419.981 381.3 422.761 380.8 425.841 380.8C431.041 380.8 435.161 382 438.201 384.4C441.281 386.8 442.901 390.18 443.061 394.54H428.721C428.681 393.34 428.381 392.48 427.821 391.96C427.261 391.44 426.581 391.18 425.781 391.18C425.221 391.18 424.761 391.38 424.401 391.78C424.041 392.14 423.861 392.66 423.861 393.34C423.861 394.3 424.381 395.1 425.421 395.74C426.501 396.34 428.201 397.08 430.521 397.96C433.201 398.96 435.401 399.92 437.121 400.84C438.881 401.76 440.401 403.04 441.681 404.68C442.961 406.32 443.601 408.38 443.601 410.86C443.601 413.46 442.961 415.8 441.681 417.88C440.401 419.92 438.541 421.52 436.101 422.68C433.661 423.84 430.761 424.42 427.401 424.42ZM464.901 424.42C459.821 424.42 455.621 423.24 452.301 420.88C449.021 418.48 447.241 414.98 446.961 410.38H461.121C461.321 412.82 462.401 414.04 464.361 414.04C465.081 414.04 465.681 413.88 466.161 413.56C466.681 413.2 466.941 412.66 466.941 411.94C466.941 410.94 466.401 410.14 465.321 409.54C464.241 408.9 462.561 408.18 460.281 407.38C457.561 406.42 455.301 405.48 453.501 404.56C451.741 403.64 450.221 402.3 448.941 400.54C447.661 398.78 447.041 396.52 447.081 393.76C447.081 391 447.781 388.66 449.181 386.74C450.621 384.78 452.561 383.3 455.001 382.3C457.481 381.3 460.261 380.8 463.341 380.8C468.541 380.8 472.661 382 475.701 384.4C478.781 386.8 480.401 390.18 480.561 394.54H466.221C466.181 393.34 465.881 392.48 465.321 391.96C464.761 391.44 464.081 391.18 463.281 391.18C462.721 391.18 462.261 391.38 461.901 391.78C461.541 392.14 461.361 392.66 461.361 393.34C461.361 394.3 461.881 395.1 462.921 395.74C464.001 396.34 465.701 397.08 468.021 397.96C470.701 398.96 472.901 399.92 474.621 400.84C476.381 401.76 477.901 403.04 479.181 404.68C480.461 406.32 481.101 408.38 481.101 410.86C481.101 413.46 480.461 415.8 479.181 417.88C477.901 419.92 476.041 421.52 473.601 422.68C471.161 423.84 468.261 424.42 464.901 424.42ZM499.101 392.14V397.36H512.301V407.38H499.101V413.38H514.101V424H485.781V381.52H514.101V392.14H499.101ZM536.821 381.52C541.261 381.52 545.141 382.42 548.461 384.22C551.821 386.02 554.401 388.52 556.201 391.72C558.001 394.92 558.901 398.56 558.901 402.64C558.901 406.68 558.001 410.32 556.201 413.56C554.401 416.8 551.821 419.36 548.461 421.24C545.141 423.08 541.261 424 536.821 424H519.121V381.52H536.821ZM535.621 412.12C538.621 412.12 541.001 411.3 542.761 409.66C544.521 408.02 545.401 405.68 545.401 402.64C545.401 399.6 544.521 397.26 542.761 395.62C541.001 393.98 538.621 393.16 535.621 393.16H532.441V412.12H535.621ZM635.106 381.52L625.386 424H608.826L603.906 399.88L598.986 424H582.426L572.706 381.52H587.046L590.886 408.28L596.646 381.52H611.166L616.926 408.28L620.766 381.52H635.106ZM660.583 424.42C656.583 424.42 652.903 423.48 649.543 421.6C646.223 419.72 643.583 417.12 641.623 413.8C639.663 410.48 638.683 406.74 638.683 402.58C638.683 398.42 639.663 394.68 641.623 391.36C643.583 388.04 646.223 385.46 649.543 383.62C652.903 381.74 656.583 380.8 660.583 380.8C664.583 380.8 668.243 381.74 671.563 383.62C674.883 385.46 677.503 388.04 679.423 391.36C681.383 394.68 682.363 398.42 682.363 402.58C682.363 406.74 681.383 410.48 679.423 413.8C677.503 417.12 674.863 419.72 671.503 421.6C668.183 423.48 664.543 424.42 660.583 424.42ZM660.583 412C663.223 412 665.263 411.16 666.703 409.48C668.143 407.76 668.863 405.46 668.863 402.58C668.863 399.66 668.143 397.36 666.703 395.68C665.263 393.96 663.223 393.1 660.583 393.1C657.903 393.1 655.843 393.96 654.403 395.68C652.963 397.36 652.243 399.66 652.243 402.58C652.243 405.46 652.963 407.76 654.403 409.48C655.843 411.16 657.903 412 660.583 412ZM708.528 424L700.548 408.76H700.488V424H687.168V381.52H706.968C710.408 381.52 713.348 382.14 715.788 383.38C718.228 384.58 720.048 386.24 721.248 388.36C722.488 390.44 723.108 392.8 723.108 395.44C723.108 398.28 722.308 400.8 720.708 403C719.148 405.2 716.888 406.78 713.928 407.74L723.168 424H708.528ZM700.488 399.88H705.768C707.048 399.88 708.008 399.6 708.648 399.04C709.288 398.44 709.608 397.52 709.608 396.28C709.608 395.16 709.268 394.28 708.588 393.64C707.948 393 707.008 392.68 705.768 392.68H700.488V399.88ZM753.043 424L740.683 405.58V424H727.363V381.52H740.683V399.4L752.863 381.52H767.923L753.283 401.86L768.883 424H753.043Z" fill="black"/>
</mask>
<g mask="url(#mask2_1_35)">
<path d="M72.88 403.42L73.7473 403.918L73.7512 403.911L72.88 403.42ZM67.36 408.58L66.8954 407.694L66.8894 407.698L67.36 408.58ZM53.32 410.5V409.5H52.32V410.5H53.32ZM53.32 424V425H54.32V424H53.32ZM40 424H39V425H40V424ZM40 381.52V380.52H39V381.52H40ZM70.54 385.48L69.8488 386.203L69.854 386.208L70.54 385.48ZM53.32 392.2V391.2H52.32V392.2H53.32ZM53.32 400H52.32V401H53.32V400ZM73.74 396.1C73.74 398.619 73.1592 400.888 72.0089 402.929L73.7512 403.911C75.0808 401.552 75.74 398.941 75.74 396.1H73.74ZM72.0127 402.922C70.8773 404.9 69.1855 406.493 66.8954 407.694L67.8246 409.466C70.4144 408.107 72.4027 406.26 73.7473 403.918L72.0127 402.922ZM66.8894 407.698C64.6676 408.883 61.9183 409.5 58.6 409.5V411.5C62.1617 411.5 65.2524 410.837 67.8306 409.462L66.8894 407.698ZM58.6 409.5H53.32V411.5H58.6V409.5ZM52.32 410.5V424H54.32V410.5H52.32ZM53.32 423H40V425H53.32V423ZM41 424V381.52H39V424H41ZM40 382.52H58.6V380.52H40V382.52ZM58.6 382.52C63.6373 382.52 67.3337 383.797 69.8488 386.203L71.2312 384.757C68.2263 381.883 63.9627 380.52 58.6 380.52V382.52ZM69.854 386.208C72.4222 388.629 73.74 391.889 73.74 396.1H75.74C75.74 391.431 74.2578 387.611 71.226 384.752L69.854 386.208ZM57.1 401C58.6198 401 59.9456 400.643 60.8907 399.753C61.847 398.852 62.24 397.57 62.24 396.1H60.24C60.24 397.23 59.943 397.898 59.5193 398.297C59.0844 398.707 58.3402 399 57.1 399V401ZM62.24 396.1C62.24 394.63 61.847 393.348 60.8907 392.447C59.9456 391.557 58.6198 391.2 57.1 391.2V393.2C58.3402 393.2 59.0844 393.493 59.5193 393.903C59.943 394.302 60.24 394.97 60.24 396.1H62.24ZM57.1 391.2H53.32V393.2H57.1V391.2ZM52.32 392.2V400H54.32V392.2H52.32ZM53.32 401H57.1V399H53.32V401ZM91.9848 381.52H92.9848V380.52H91.9848V381.52ZM93.2448 410.14L92.4349 410.727L92.4464 410.742L92.4585 410.758L93.2448 410.14ZM101.705 410.14L102.478 410.775L102.483 410.768L102.488 410.761L101.705 410.14ZM103.085 381.52V380.52H102.085V381.52H103.085ZM116.345 381.52H117.345V380.52H116.345V381.52ZM113.825 415.84L114.686 416.349L114.689 416.344L113.825 415.84ZM87.5448 422.26L87.0823 423.147L87.0875 423.149L87.5448 422.26ZM78.7248 381.52V380.52H77.7248V381.52H78.7248ZM90.9848 381.52V405.46H92.9848V381.52H90.9848ZM90.9848 405.46C90.9848 407.555 91.4332 409.343 92.4349 410.727L94.0548 409.553C93.3765 408.617 92.9848 407.285 92.9848 405.46H90.9848ZM92.4585 410.758C93.589 412.197 95.3324 412.82 97.4448 412.82V410.82C95.7173 410.82 94.6606 410.323 94.0312 409.522L92.4585 410.758ZM97.4448 412.82C99.5602 412.82 101.31 412.196 102.478 410.775L100.932 409.505C100.259 410.324 99.1695 410.82 97.4448 410.82V412.82ZM102.488 410.761C103.588 409.375 104.085 407.572 104.085 405.46H102.085C102.085 407.268 101.662 408.585 100.921 409.519L102.488 410.761ZM104.085 405.46V381.52H102.085V405.46H104.085ZM103.085 382.52H116.345V380.52H103.085V382.52ZM115.345 381.52V405.46H117.345V381.52H115.345ZM115.345 405.46C115.345 409.36 114.535 412.638 112.961 415.336L114.689 416.344C116.475 413.282 117.345 409.64 117.345 405.46H115.345ZM112.964 415.331C111.382 418.006 109.226 420.01 106.483 421.363L107.367 423.157C110.464 421.63 112.908 419.354 114.686 416.349L112.964 415.331ZM106.483 421.363C103.714 422.728 100.608 423.42 97.1448 423.42V425.42C100.882 425.42 104.296 424.672 107.367 423.157L106.483 421.363ZM97.1448 423.42C93.681 423.42 90.6416 422.728 88.0022 421.371L87.0875 423.149C90.0481 424.672 93.4087 425.42 97.1448 425.42V423.42ZM88.0074 421.373C85.4297 420.029 83.4104 418.033 81.9413 415.359L80.1884 416.321C81.8392 419.327 84.14 421.611 87.0823 423.147L88.0074 421.373ZM81.9413 415.359C80.4807 412.7 79.7248 409.414 79.7248 405.46H77.7248C77.7248 409.665 78.529 413.3 80.1884 416.321L81.9413 415.359ZM79.7248 405.46V381.52H77.7248V405.46H79.7248ZM78.7248 382.52H91.9848V380.52H78.7248V382.52ZM143.45 424L142.564 424.464L142.845 425H143.45V424ZM135.47 408.76L136.356 408.296L136.075 407.76H135.47V408.76ZM135.41 408.76V407.76H134.41V408.76H135.41ZM135.41 424V425H136.41V424H135.41ZM122.09 424H121.09V425H122.09V424ZM122.09 381.52V380.52H121.09V381.52H122.09ZM150.71 383.38L150.257 384.272L150.269 384.277L150.71 383.38ZM156.17 388.36L155.3 388.853L155.305 388.862L155.311 388.872L156.17 388.36ZM155.63 403L154.821 402.412L154.814 402.422L155.63 403ZM148.85 407.74L148.541 406.789L147.374 407.167L147.98 408.234L148.85 407.74ZM158.09 424V425H159.808L158.959 423.506L158.09 424ZM135.41 399.88H134.41V400.88H135.41V399.88ZM143.57 399.04L144.228 399.793L144.241 399.781L144.254 399.77L143.57 399.04ZM143.51 393.64L142.803 394.347L142.813 394.358L142.824 394.368L143.51 393.64ZM135.41 392.68V391.68H134.41V392.68H135.41ZM144.336 423.536L136.356 408.296L134.584 409.224L142.564 424.464L144.336 423.536ZM135.47 407.76H135.41V409.76H135.47V407.76ZM134.41 408.76V424H136.41V408.76H134.41ZM135.41 423H122.09V425H135.41V423ZM123.09 424V381.52H121.09V424H123.09ZM122.09 382.52H141.89V380.52H122.09V382.52ZM141.89 382.52C145.212 382.52 147.989 383.119 150.257 384.271L151.163 382.489C148.551 381.161 145.448 380.52 141.89 380.52V382.52ZM150.269 384.277C152.55 385.399 154.21 386.928 155.3 388.853L157.04 387.867C155.73 385.552 153.75 383.761 151.151 382.483L150.269 384.277ZM155.311 388.872C156.45 390.783 157.03 392.963 157.03 395.44H159.03C159.03 392.637 158.369 390.097 157.029 387.848L155.311 388.872ZM157.03 395.44C157.03 398.079 156.291 400.391 154.821 402.412L156.439 403.588C158.169 401.209 159.03 398.481 159.03 395.44H157.03ZM154.814 402.422C153.397 404.42 151.329 405.885 148.541 406.789L149.158 408.691C152.29 407.675 154.742 405.98 156.446 403.578L154.814 402.422ZM147.98 408.234L157.22 424.494L158.959 423.506L149.719 407.246L147.98 408.234ZM158.09 423H143.45V425H158.09V423ZM135.41 400.88H140.69V398.88H135.41V400.88ZM140.69 400.88C142.094 400.88 143.333 400.576 144.228 399.793L142.911 398.287C142.526 398.624 141.846 398.88 140.69 398.88V400.88ZM144.254 399.77C145.167 398.913 145.53 397.68 145.53 396.28H143.53C143.53 397.36 143.253 397.967 142.886 398.31L144.254 399.77ZM145.53 396.28C145.53 394.944 145.116 393.778 144.195 392.912L142.824 394.368C143.264 394.782 143.53 395.376 143.53 396.28H145.53ZM144.217 392.933C143.329 392.045 142.095 391.68 140.69 391.68V393.68C141.765 393.68 142.411 393.955 142.803 394.347L144.217 392.933ZM140.69 391.68H135.41V393.68H140.69V391.68ZM134.41 392.68V399.88H136.41V392.68H134.41ZM175.605 392.14V391.14H174.605V392.14H175.605ZM175.605 397.36H174.605V398.36H175.605V397.36ZM188.805 397.36H189.805V396.36H188.805V397.36ZM188.805 407.38V408.38H189.805V407.38H188.805ZM175.605 407.38V406.38H174.605V407.38H175.605ZM175.605 413.38H174.605V414.38H175.605V413.38ZM190.605 413.38H191.605V412.38H190.605V413.38ZM190.605 424V425H191.605V424H190.605ZM162.285 424H161.285V425H162.285V424ZM162.285 381.52V380.52H161.285V381.52H162.285ZM190.605 381.52H191.605V380.52H190.605V381.52ZM190.605 392.14V393.14H191.605V392.14H190.605ZM174.605 392.14V397.36H176.605V392.14H174.605ZM175.605 398.36H188.805V396.36H175.605V398.36ZM187.805 397.36V407.38H189.805V397.36H187.805ZM188.805 406.38H175.605V408.38H188.805V406.38ZM174.605 407.38V413.38H176.605V407.38H174.605ZM175.605 414.38H190.605V412.38H175.605V414.38ZM189.605 413.38V424H191.605V413.38H189.605ZM190.605 423H162.285V425H190.605V423ZM163.285 424V381.52H161.285V424H163.285ZM162.285 382.52H190.605V380.52H162.285V382.52ZM189.605 381.52V392.14H191.605V381.52H189.605ZM190.605 391.14H175.605V393.14H190.605V391.14ZM238.7 403.42L239.568 403.918L239.571 403.911L238.7 403.42ZM233.18 408.58L232.716 407.694L232.71 407.698L233.18 408.58ZM219.14 410.5V409.5H218.14V410.5H219.14ZM219.14 424V425H220.14V424H219.14ZM205.82 424H204.82V425H205.82V424ZM205.82 381.52V380.52H204.82V381.52H205.82ZM236.36 385.48L235.669 386.203L235.674 386.208L236.36 385.48ZM219.14 392.2V391.2H218.14V392.2H219.14ZM219.14 400H218.14V401H219.14V400ZM239.56 396.1C239.56 398.619 238.979 400.888 237.829 402.929L239.571 403.911C240.901 401.552 241.56 398.941 241.56 396.1H239.56ZM237.833 402.922C236.698 404.9 235.006 406.493 232.716 407.694L233.645 409.466C236.235 408.107 238.223 406.26 239.568 403.918L237.833 402.922ZM232.71 407.698C230.488 408.883 227.739 409.5 224.42 409.5V411.5C227.982 411.5 231.073 410.837 233.651 409.462L232.71 407.698ZM224.42 409.5H219.14V411.5H224.42V409.5ZM218.14 410.5V424H220.14V410.5H218.14ZM219.14 423H205.82V425H219.14V423ZM206.82 424V381.52H204.82V424H206.82ZM205.82 382.52H224.42V380.52H205.82V382.52ZM224.42 382.52C229.458 382.52 233.154 383.797 235.669 386.203L237.052 384.757C234.047 381.883 229.783 380.52 224.42 380.52V382.52ZM235.674 386.208C238.243 388.629 239.56 391.889 239.56 396.1H241.56C241.56 391.431 240.078 387.611 237.046 384.752L235.674 386.208ZM222.92 401C224.44 401 225.766 400.643 226.711 399.753C227.667 398.852 228.06 397.57 228.06 396.1H226.06C226.06 397.23 225.763 397.898 225.34 398.297C224.905 398.707 224.161 399 222.92 399V401ZM228.06 396.1C228.06 394.63 227.667 393.348 226.711 392.447C225.766 391.557 224.44 391.2 222.92 391.2V393.2C224.161 393.2 224.905 393.493 225.34 393.903C225.763 394.302 226.06 394.97 226.06 396.1H228.06ZM222.92 391.2H219.14V393.2H222.92V391.2ZM218.14 392.2V400H220.14V392.2H218.14ZM219.14 401H222.92V399H219.14V401ZM266.145 424L265.259 424.464L265.54 425H266.145V424ZM258.165 408.76L259.051 408.296L258.77 407.76H258.165V408.76ZM258.105 408.76V407.76H257.105V408.76H258.105ZM258.105 424V425H259.105V424H258.105ZM244.785 424H243.785V425H244.785V424ZM244.785 381.52V380.52H243.785V381.52H244.785ZM273.405 383.38L272.952 384.272L272.964 384.277L273.405 383.38ZM278.865 388.36L277.995 388.853L278 388.862L278.006 388.872L278.865 388.36ZM278.325 403L277.516 402.412L277.509 402.422L278.325 403ZM271.545 407.74L271.237 406.789L270.07 407.167L270.676 408.234L271.545 407.74ZM280.785 424V425H282.504L281.655 423.506L280.785 424ZM258.105 399.88H257.105V400.88H258.105V399.88ZM266.265 399.04L266.924 399.793L266.937 399.781L266.949 399.77L266.265 399.04ZM266.205 393.64L265.498 394.347L265.509 394.358L265.52 394.368L266.205 393.64ZM258.105 392.68V391.68H257.105V392.68H258.105ZM267.031 423.536L259.051 408.296L257.279 409.224L265.259 424.464L267.031 423.536ZM258.165 407.76H258.105V409.76H258.165V407.76ZM257.105 408.76V424H259.105V408.76H257.105ZM258.105 423H244.785V425H258.105V423ZM245.785 424V381.52H243.785V424H245.785ZM244.785 382.52H264.585V380.52H244.785V382.52ZM264.585 382.52C267.907 382.52 270.684 383.119 272.952 384.271L273.858 382.489C271.246 381.161 268.143 380.52 264.585 380.52V382.52ZM272.964 384.277C275.245 385.399 276.905 386.928 277.995 388.853L279.735 387.867C278.425 385.552 276.445 383.761 273.846 382.483L272.964 384.277ZM278.006 388.872C279.146 390.783 279.725 392.963 279.725 395.44H281.725C281.725 392.637 281.065 390.097 279.724 387.848L278.006 388.872ZM279.725 395.44C279.725 398.079 278.986 400.391 277.516 402.412L279.134 403.588C280.864 401.209 281.725 398.481 281.725 395.44H279.725ZM277.509 402.422C276.093 404.42 274.025 405.885 271.237 406.789L271.854 408.691C274.986 407.675 277.438 405.98 279.141 403.578L277.509 402.422ZM270.676 408.234L279.916 424.494L281.655 423.506L272.415 407.246L270.676 408.234ZM280.785 423H266.145V425H280.785V423ZM258.105 400.88H263.385V398.88H258.105V400.88ZM263.385 400.88C264.789 400.88 266.029 400.576 266.924 399.793L265.607 398.287C265.222 398.624 264.541 398.88 263.385 398.88V400.88ZM266.949 399.77C267.863 398.913 268.225 397.68 268.225 396.28H266.225C266.225 397.36 265.948 397.967 265.581 398.31L266.949 399.77ZM268.225 396.28C268.225 394.944 267.811 393.778 266.891 392.912L265.52 394.368C265.959 394.782 266.225 395.376 266.225 396.28H268.225ZM266.912 392.933C266.024 392.045 264.79 391.68 263.385 391.68V393.68C264.46 393.68 265.106 393.955 265.498 394.347L266.912 392.933ZM263.385 391.68H258.105V393.68H263.385V391.68ZM257.105 392.68V399.88H259.105V392.68H257.105ZM294.64 421.6L294.148 422.47L294.152 422.473L294.64 421.6ZM294.64 383.62L295.125 384.495L295.129 384.493L294.64 383.62ZM316.66 383.62L316.168 384.49L316.176 384.495L316.66 383.62ZM324.52 391.36L323.655 391.861L323.659 391.868L324.52 391.36ZM324.52 413.8L323.659 413.292L323.655 413.299L324.52 413.8ZM316.6 421.6L316.112 420.727L316.108 420.73L316.6 421.6ZM311.8 409.48L312.56 410.131L312.567 410.122L311.8 409.48ZM311.8 395.68L311.034 396.322L311.041 396.331L311.8 395.68ZM299.5 395.68L300.26 396.331L300.267 396.322L299.5 395.68ZM299.5 409.48L298.734 410.122L298.741 410.131L299.5 409.48ZM305.68 423.42C301.845 423.42 298.334 422.521 295.129 420.727L294.152 422.473C297.667 424.439 301.516 425.42 305.68 425.42V423.42ZM295.133 420.73C291.967 418.937 289.454 416.463 287.582 413.292L285.859 414.308C287.907 417.777 290.674 420.503 294.148 422.47L295.133 420.73ZM287.582 413.292C285.72 410.138 284.78 406.576 284.78 402.58H282.78C282.78 406.904 283.801 410.822 285.859 414.308L287.582 413.292ZM284.78 402.58C284.78 398.584 285.72 395.022 287.582 391.868L285.859 390.852C283.801 394.338 282.78 398.256 282.78 402.58H284.78ZM287.582 391.868C289.453 388.699 291.964 386.247 295.125 384.495L294.156 382.745C290.677 384.673 287.908 387.381 285.859 390.852L287.582 391.868ZM295.129 384.493C298.334 382.699 301.845 381.8 305.68 381.8V379.8C301.516 379.8 297.667 380.781 294.152 382.747L295.129 384.493ZM305.68 381.8C309.516 381.8 313.005 382.699 316.168 384.49L317.153 382.75C313.676 380.781 309.844 379.8 305.68 379.8V381.8ZM316.176 384.495C319.335 386.246 321.825 388.696 323.655 391.861L325.386 390.859C323.376 387.384 320.625 384.674 317.145 382.745L316.176 384.495ZM323.659 391.868C325.521 395.022 326.46 398.584 326.46 402.58H328.46C328.46 398.256 327.44 394.338 325.382 390.852L323.659 391.868ZM326.46 402.58C326.46 406.576 325.521 410.138 323.659 413.292L325.382 414.308C327.44 410.822 328.46 406.904 328.46 402.58H326.46ZM323.655 413.299C321.825 416.463 319.316 418.935 316.112 420.727L317.089 422.473C320.605 420.505 323.376 417.777 325.386 414.301L323.655 413.299ZM316.108 420.73C312.944 422.521 309.475 423.42 305.68 423.42V425.42C309.806 425.42 313.617 424.439 317.093 422.47L316.108 420.73ZM305.68 413C308.55 413 310.893 412.076 312.56 410.131L311.041 408.829C309.828 410.244 308.091 411 305.68 411V413ZM312.567 410.122C314.196 408.176 314.96 405.627 314.96 402.58H312.96C312.96 405.293 312.285 407.344 311.034 408.838L312.567 410.122ZM314.96 402.58C314.96 399.499 314.199 396.942 312.56 395.029L311.041 396.331C312.282 397.778 312.96 399.821 312.96 402.58H314.96ZM312.567 395.038C310.903 393.05 308.558 392.1 305.68 392.1V394.1C308.083 394.1 309.818 394.87 311.034 396.322L312.567 395.038ZM305.68 392.1C302.768 392.1 300.401 393.046 298.734 395.038L300.267 396.322C301.48 394.874 303.233 394.1 305.68 394.1V392.1ZM298.741 395.029C297.102 396.942 296.34 399.499 296.34 402.58H298.34C298.34 399.821 299.019 397.778 300.26 396.331L298.741 395.029ZM296.34 402.58C296.34 405.627 297.105 408.176 298.734 410.122L300.267 408.838C299.016 407.344 298.34 405.293 298.34 402.58H296.34ZM298.741 410.131C300.411 412.079 302.776 413 305.68 413V411C303.225 411 301.47 410.241 300.26 408.829L298.741 410.131ZM333.586 391.48L332.7 391.016L332.696 391.024L333.586 391.48ZM340.906 383.86L341.401 384.729L341.409 384.724L340.906 383.86ZM361.906 383.2L361.468 384.099L361.476 384.103L361.483 384.106L361.906 383.2ZM368.986 389.02L368.172 389.601L368.178 389.61L368.986 389.02ZM372.646 397.84V398.84H373.84L373.63 397.664L372.646 397.84ZM358.606 397.84L357.696 398.256L357.963 398.84H358.606V397.84ZM355.846 394.6L355.278 395.423L355.294 395.434L355.311 395.445L355.846 394.6ZM346.486 395.92L345.699 395.302L345.695 395.308L345.69 395.314L346.486 395.92ZM346.486 409.48L345.69 410.086L345.695 410.092L345.699 410.098L346.486 409.48ZM355.846 410.86L356.394 411.696L356.4 411.692L355.846 410.86ZM358.606 407.56V406.56H357.963L357.696 407.144L358.606 407.56ZM372.646 407.56L373.63 407.736L373.84 406.56H372.646V407.56ZM368.986 416.38L368.178 415.79L368.172 415.799L368.986 416.38ZM361.906 422.26L362.333 423.164L362.338 423.162L361.906 422.26ZM340.906 421.6L340.402 422.464L340.411 422.469L340.906 421.6ZM333.586 413.92L332.696 414.376L332.7 414.384L333.586 413.92ZM332.066 402.7C332.066 398.636 332.877 395.056 334.476 391.936L332.696 391.024C330.934 394.464 330.066 398.364 330.066 402.7H332.066ZM334.471 391.944C336.104 388.831 338.41 386.432 341.401 384.729L340.411 382.991C337.081 384.888 334.507 387.569 332.7 391.016L334.471 391.944ZM341.409 384.724C344.392 382.987 347.932 382.1 352.066 382.1V380.1C347.639 380.1 343.74 381.053 340.402 382.996L341.409 384.724ZM352.066 382.1C355.617 382.1 358.744 382.775 361.468 384.099L362.343 382.301C359.308 380.825 355.874 380.1 352.066 380.1V382.1ZM361.483 384.106C364.254 385.397 366.476 387.227 368.172 389.601L369.799 388.439C367.895 385.773 365.398 383.723 362.328 382.293L361.483 384.106ZM368.178 389.61C369.92 391.996 371.085 394.791 371.661 398.016L373.63 397.664C373.006 394.169 371.731 391.084 369.793 388.43L368.178 389.61ZM372.646 396.84H358.606V398.84H372.646V396.84ZM359.515 397.424C358.802 395.863 357.758 394.628 356.381 393.755L355.311 395.445C356.333 396.092 357.13 397.017 357.696 398.256L359.515 397.424ZM356.413 393.777C355.073 392.852 353.532 392.4 351.826 392.4V394.4C353.16 394.4 354.298 394.748 355.278 395.423L356.413 393.777ZM351.826 392.4C349.296 392.4 347.219 393.368 345.699 395.302L347.272 396.538C348.392 395.112 349.875 394.4 351.826 394.4V392.4ZM345.69 395.314C344.238 397.22 343.566 399.716 343.566 402.7H345.566C345.566 400.004 346.173 397.98 347.281 396.526L345.69 395.314ZM343.566 402.7C343.566 405.684 344.238 408.18 345.69 410.086L347.281 408.874C346.173 407.42 345.566 405.396 345.566 402.7H343.566ZM345.699 410.098C347.219 412.032 349.296 413 351.826 413V411C349.875 411 348.392 410.288 347.272 408.862L345.699 410.098ZM351.826 413C353.521 413 355.055 412.573 356.394 411.696L355.298 410.024C354.316 410.667 353.17 411 351.826 411V413ZM356.4 411.692C357.765 410.782 358.803 409.533 359.515 407.976L357.696 407.144C357.128 408.387 356.326 409.338 355.291 410.028L356.4 411.692ZM358.606 408.56H372.646V406.56H358.606V408.56ZM371.661 407.384C371.085 410.609 369.92 413.404 368.178 415.79L369.793 416.97C371.731 414.316 373.006 411.231 373.63 407.736L371.661 407.384ZM368.172 415.799C366.475 418.175 364.248 420.028 361.473 421.358L362.338 423.162C365.403 421.692 367.897 419.625 369.799 416.961L368.172 415.799ZM361.479 421.356C358.751 422.644 355.621 423.3 352.066 423.3V425.3C355.87 425.3 359.3 424.596 362.333 423.164L361.479 421.356ZM352.066 423.3C347.928 423.3 344.385 422.431 341.401 420.731L340.411 422.469C343.746 424.369 347.643 425.3 352.066 425.3V423.3ZM341.409 420.736C338.414 418.992 336.105 416.571 334.471 413.456L332.7 414.384C334.506 417.829 337.078 420.528 340.402 422.464L341.409 420.736ZM334.476 413.464C332.877 410.344 332.066 406.764 332.066 402.7H330.066C330.066 407.036 330.934 410.936 332.696 414.376L334.476 413.464ZM390.761 392.14V391.14H389.761V392.14H390.761ZM390.761 397.36H389.761V398.36H390.761V397.36ZM403.961 397.36H404.961V396.36H403.961V397.36ZM403.961 407.38V408.38H404.961V407.38H403.961ZM390.761 407.38V406.38H389.761V407.38H390.761ZM390.761 413.38H389.761V414.38H390.761V413.38ZM405.761 413.38H406.761V412.38H405.761V413.38ZM405.761 424V425H406.761V424H405.761ZM377.441 424H376.441V425H377.441V424ZM377.441 381.52V380.52H376.441V381.52H377.441ZM405.761 381.52H406.761V380.52H405.761V381.52ZM405.761 392.14V393.14H406.761V392.14H405.761ZM389.761 392.14V397.36H391.761V392.14H389.761ZM390.761 398.36H403.961V396.36H390.761V398.36ZM402.961 397.36V407.38H404.961V397.36H402.961ZM403.961 406.38H390.761V408.38H403.961V406.38ZM389.761 407.38V413.38H391.761V407.38H389.761ZM390.761 414.38H405.761V412.38H390.761V414.38ZM404.761 413.38V424H406.761V413.38H404.761ZM405.761 423H377.441V425H405.761V423ZM378.441 424V381.52H376.441V424H378.441ZM377.441 382.52H405.761V380.52H377.441V382.52ZM404.761 381.52V392.14H406.761V381.52H404.761ZM405.761 391.14H390.761V393.14H405.761V391.14ZM414.801 420.88L414.211 421.687L414.222 421.695L414.801 420.88ZM409.461 410.38V409.38H408.399L408.463 410.441L409.461 410.38ZM423.621 410.38L424.618 410.298L424.543 409.38H423.621V410.38ZM428.661 413.56L429.216 414.392L429.223 414.387L429.23 414.382L428.661 413.56ZM427.821 409.54L427.311 410.4L427.323 410.407L427.336 410.414L427.821 409.54ZM422.781 407.38L422.448 408.323L422.45 408.324L422.781 407.38ZM416.001 404.56L415.538 405.446L415.546 405.45L416.001 404.56ZM409.581 393.76L410.581 393.774V393.767V393.76H409.581ZM411.681 386.74L410.875 386.148L410.873 386.151L411.681 386.74ZM417.501 382.3L417.127 381.373L417.122 381.375L417.501 382.3ZM438.201 384.4L437.582 385.185L437.587 385.189L438.201 384.4ZM443.061 394.54V395.54H444.099L444.061 394.503L443.061 394.54ZM428.721 394.54L427.722 394.573L427.754 395.54H428.721V394.54ZM424.401 391.78L425.108 392.487L425.127 392.469L425.145 392.449L424.401 391.78ZM425.421 395.74L424.897 396.592L424.916 396.603L424.936 396.614L425.421 395.74ZM430.521 397.96L430.167 398.895L430.172 398.897L430.521 397.96ZM437.121 400.84L436.65 401.722L436.658 401.726L437.121 400.84ZM441.681 417.88L442.528 418.412L442.533 418.404L441.681 417.88ZM427.401 423.42C422.477 423.42 418.494 422.278 415.381 420.065L414.222 421.695C417.749 424.202 422.165 425.42 427.401 425.42V423.42ZM415.392 420.073C412.386 417.874 410.724 414.667 410.459 410.319L408.463 410.441C408.758 415.293 410.657 419.086 414.211 421.687L415.392 420.073ZM409.461 411.38H423.621V409.38H409.461V411.38ZM422.625 410.462C422.734 411.794 423.093 412.953 423.832 413.788C424.601 414.656 425.658 415.04 426.861 415.04V413.04C426.104 413.04 425.642 412.814 425.33 412.462C424.989 412.077 424.709 411.406 424.618 410.298L422.625 410.462ZM426.861 415.04C427.73 415.04 428.535 414.846 429.216 414.392L428.107 412.728C427.827 412.914 427.433 413.04 426.861 413.04V415.04ZM429.23 414.382C430.061 413.807 430.441 412.935 430.441 411.94H428.441C428.441 412.385 428.302 412.593 428.092 412.738L429.23 414.382ZM430.441 411.94C430.441 410.486 429.616 409.393 428.307 408.666L427.336 410.414C428.186 410.887 428.441 411.394 428.441 411.94H430.441ZM428.331 408.68C427.164 407.988 425.409 407.242 423.112 406.436L422.45 408.324C424.714 409.118 426.319 409.812 427.311 410.4L428.331 408.68ZM423.114 406.437C420.42 405.486 418.204 404.563 416.456 403.67L415.546 405.45C417.398 406.397 419.703 407.354 422.448 408.323L423.114 406.437ZM416.465 403.674C414.854 402.832 413.448 401.599 412.25 399.952L410.633 401.128C411.994 403.001 413.629 404.448 415.538 405.446L416.465 403.674ZM412.25 399.952C411.128 398.409 410.543 396.377 410.581 393.774L408.581 393.746C408.539 396.663 409.195 399.151 410.633 401.128L412.25 399.952ZM410.581 393.76C410.581 391.176 411.233 389.052 412.489 387.329L410.873 386.151C409.329 388.268 408.581 390.824 408.581 393.76H410.581ZM412.487 387.332C413.809 385.533 415.596 384.162 417.88 383.225L417.122 381.375C414.527 382.438 412.433 384.027 410.875 386.148L412.487 387.332ZM417.875 383.227C420.22 382.282 422.87 381.8 425.841 381.8V379.8C422.652 379.8 419.743 380.318 417.127 381.373L417.875 383.227ZM425.841 381.8C430.893 381.8 434.77 382.965 437.582 385.185L438.821 383.615C435.552 381.035 431.189 379.8 425.841 379.8V381.8ZM437.587 385.189C440.404 387.385 441.911 390.473 442.062 394.577L444.061 394.503C443.891 389.887 442.158 386.215 438.816 383.611L437.587 385.189ZM443.061 393.54H428.721V395.54H443.061V393.54ZM429.721 394.507C429.677 393.188 429.344 392.009 428.502 391.227L427.141 392.693C427.419 392.951 427.686 393.492 427.722 394.573L429.721 394.507ZM428.502 391.227C427.747 390.527 426.821 390.18 425.781 390.18V392.18C426.342 392.18 426.775 392.353 427.141 392.693L428.502 391.227ZM425.781 390.18C424.951 390.18 424.216 390.491 423.658 391.111L425.145 392.449C425.306 392.269 425.492 392.18 425.781 392.18V390.18ZM423.694 391.073C423.09 391.677 422.861 392.487 422.861 393.34H424.861C424.861 392.833 424.992 392.603 425.108 392.487L423.694 391.073ZM422.861 393.34C422.861 394.743 423.653 395.826 424.897 396.592L425.945 394.888C425.109 394.374 424.861 393.857 424.861 393.34H422.861ZM424.936 396.614C426.081 397.251 427.837 398.011 430.167 398.895L430.876 397.025C428.566 396.149 426.921 395.429 425.907 394.866L424.936 396.614ZM430.172 398.897C432.827 399.888 434.983 400.83 436.65 401.722L437.593 399.958C435.82 399.01 433.575 398.032 430.871 397.023L430.172 398.897ZM436.658 401.726C438.286 402.577 439.696 403.762 440.893 405.295L442.47 404.065C441.106 402.318 439.477 400.943 437.585 399.954L436.658 401.726ZM440.893 405.295C442.011 406.727 442.601 408.559 442.601 410.86H444.601C444.601 408.201 443.912 405.913 442.47 404.065L440.893 405.295ZM442.601 410.86C442.601 413.287 442.006 415.444 440.83 417.356L442.533 418.404C443.916 416.156 444.601 413.633 444.601 410.86H442.601ZM440.834 417.349C439.667 419.208 437.962 420.688 435.672 421.777L436.531 423.583C439.121 422.352 441.135 420.633 442.528 418.412L440.834 417.349ZM435.672 421.777C433.395 422.859 430.648 423.42 427.401 423.42V425.42C430.874 425.42 433.928 424.821 436.531 423.583L435.672 421.777ZM452.301 420.88L451.711 421.687L451.722 421.695L452.301 420.88ZM446.961 410.38V409.38H445.899L445.963 410.441L446.961 410.38ZM461.121 410.38L462.118 410.298L462.043 409.38H461.121V410.38ZM466.161 413.56L466.716 414.392L466.723 414.387L466.73 414.382L466.161 413.56ZM465.321 409.54L464.811 410.4L464.823 410.407L464.836 410.414L465.321 409.54ZM460.281 407.38L459.948 408.323L459.95 408.324L460.281 407.38ZM453.501 404.56L453.038 405.446L453.046 405.45L453.501 404.56ZM447.081 393.76L448.081 393.774V393.767V393.76H447.081ZM449.181 386.74L448.375 386.148L448.373 386.151L449.181 386.74ZM455.001 382.3L454.627 381.373L454.622 381.375L455.001 382.3ZM475.701 384.4L475.082 385.185L475.087 385.189L475.701 384.4ZM480.561 394.54V395.54H481.599L481.561 394.503L480.561 394.54ZM466.221 394.54L465.222 394.573L465.254 395.54H466.221V394.54ZM461.901 391.78L462.608 392.487L462.627 392.469L462.645 392.449L461.901 391.78ZM462.921 395.74L462.397 396.592L462.416 396.603L462.436 396.614L462.921 395.74ZM468.021 397.96L467.667 398.895L467.672 398.897L468.021 397.96ZM474.621 400.84L474.15 401.722L474.158 401.726L474.621 400.84ZM479.181 417.88L480.028 418.412L480.033 418.404L479.181 417.88ZM464.901 423.42C459.977 423.42 455.994 422.278 452.881 420.065L451.722 421.695C455.249 424.202 459.665 425.42 464.901 425.42V423.42ZM452.892 420.073C449.886 417.874 448.224 414.667 447.959 410.319L445.963 410.441C446.258 415.293 448.157 419.086 451.711 421.687L452.892 420.073ZM446.961 411.38H461.121V409.38H446.961V411.38ZM460.125 410.462C460.234 411.794 460.593 412.953 461.332 413.788C462.101 414.656 463.158 415.04 464.361 415.04V413.04C463.604 413.04 463.142 412.814 462.83 412.462C462.489 412.077 462.209 411.406 462.118 410.298L460.125 410.462ZM464.361 415.04C465.23 415.04 466.035 414.846 466.716 414.392L465.607 412.728C465.327 412.914 464.933 413.04 464.361 413.04V415.04ZM466.73 414.382C467.561 413.807 467.941 412.935 467.941 411.94H465.941C465.941 412.385 465.802 412.593 465.592 412.738L466.73 414.382ZM467.941 411.94C467.941 410.486 467.116 409.393 465.807 408.666L464.836 410.414C465.686 410.887 465.941 411.394 465.941 411.94H467.941ZM465.831 408.68C464.664 407.988 462.909 407.242 460.612 406.436L459.95 408.324C462.214 409.118 463.819 409.812 464.811 410.4L465.831 408.68ZM460.614 406.437C457.92 405.486 455.704 404.563 453.956 403.67L453.046 405.45C454.898 406.397 457.203 407.354 459.948 408.323L460.614 406.437ZM453.965 403.674C452.354 402.832 450.948 401.599 449.75 399.952L448.133 401.128C449.494 403.001 451.129 404.448 453.038 405.446L453.965 403.674ZM449.75 399.952C448.628 398.409 448.043 396.377 448.081 393.774L446.081 393.746C446.039 396.663 446.695 399.151 448.133 401.128L449.75 399.952ZM448.081 393.76C448.081 391.176 448.733 389.052 449.989 387.329L448.373 386.151C446.829 388.268 446.081 390.824 446.081 393.76H448.081ZM449.987 387.332C451.309 385.533 453.096 384.162 455.38 383.225L454.622 381.375C452.027 382.438 449.933 384.027 448.375 386.148L449.987 387.332ZM455.375 383.227C457.72 382.282 460.37 381.8 463.341 381.8V379.8C460.152 379.8 457.243 380.318 454.627 381.373L455.375 383.227ZM463.341 381.8C468.393 381.8 472.27 382.965 475.082 385.185L476.321 383.615C473.052 381.035 468.689 379.8 463.341 379.8V381.8ZM475.087 385.189C477.904 387.385 479.411 390.473 479.562 394.577L481.561 394.503C481.391 389.887 479.658 386.215 476.316 383.611L475.087 385.189ZM480.561 393.54H466.221V395.54H480.561V393.54ZM467.221 394.507C467.177 393.188 466.844 392.009 466.002 391.227L464.641 392.693C464.919 392.951 465.186 393.492 465.222 394.573L467.221 394.507ZM466.002 391.227C465.247 390.527 464.321 390.18 463.281 390.18V392.18C463.842 392.18 464.275 392.353 464.641 392.693L466.002 391.227ZM463.281 390.18C462.451 390.18 461.716 390.491 461.158 391.111L462.645 392.449C462.806 392.269 462.992 392.18 463.281 392.18V390.18ZM461.194 391.073C460.59 391.677 460.361 392.487 460.361 393.34H462.361C462.361 392.833 462.492 392.603 462.608 392.487L461.194 391.073ZM460.361 393.34C460.361 394.743 461.153 395.826 462.397 396.592L463.445 394.888C462.609 394.374 462.361 393.857 462.361 393.34H460.361ZM462.436 396.614C463.581 397.251 465.337 398.011 467.667 398.895L468.376 397.025C466.066 396.149 464.421 395.429 463.407 394.866L462.436 396.614ZM467.672 398.897C470.327 399.888 472.483 400.83 474.15 401.722L475.093 399.958C473.32 399.01 471.075 398.032 468.371 397.023L467.672 398.897ZM474.158 401.726C475.786 402.577 477.196 403.762 478.393 405.295L479.97 404.065C478.606 402.318 476.977 400.943 475.085 399.954L474.158 401.726ZM478.393 405.295C479.511 406.727 480.101 408.559 480.101 410.86H482.101C482.101 408.201 481.412 405.913 479.97 404.065L478.393 405.295ZM480.101 410.86C480.101 413.287 479.506 415.444 478.33 417.356L480.033 418.404C481.416 416.156 482.101 413.633 482.101 410.86H480.101ZM478.334 417.349C477.167 419.208 475.462 420.688 473.172 421.777L474.031 423.583C476.621 422.352 478.635 420.633 480.028 418.412L478.334 417.349ZM473.172 421.777C470.895 422.859 468.148 423.42 464.901 423.42V425.42C468.374 425.42 471.428 424.821 474.031 423.583L473.172 421.777ZM499.101 392.14V391.14H498.101V392.14H499.101ZM499.101 397.36H498.101V398.36H499.101V397.36ZM512.301 397.36H513.301V396.36H512.301V397.36ZM512.301 407.38V408.38H513.301V407.38H512.301ZM499.101 407.38V406.38H498.101V407.38H499.101ZM499.101 413.38H498.101V414.38H499.101V413.38ZM514.101 413.38H515.101V412.38H514.101V413.38ZM514.101 424V425H515.101V424H514.101ZM485.781 424H484.781V425H485.781V424ZM485.781 381.52V380.52H484.781V381.52H485.781ZM514.101 381.52H515.101V380.52H514.101V381.52ZM514.101 392.14V393.14H515.101V392.14H514.101ZM498.101 392.14V397.36H500.101V392.14H498.101ZM499.101 398.36H512.301V396.36H499.101V398.36ZM511.301 397.36V407.38H513.301V397.36H511.301ZM512.301 406.38H499.101V408.38H512.301V406.38ZM498.101 407.38V413.38H500.101V407.38H498.101ZM499.101 414.38H514.101V412.38H499.101V414.38ZM513.101 413.38V424H515.101V413.38H513.101ZM514.101 423H485.781V425H514.101V423ZM486.781 424V381.52H484.781V424H486.781ZM485.781 382.52H514.101V380.52H485.781V382.52ZM513.101 381.52V392.14H515.101V381.52H513.101ZM514.101 391.14H499.101V393.14H514.101V391.14ZM548.461 384.22L547.984 385.099L547.989 385.101L548.461 384.22ZM548.461 421.24L548.946 422.115L548.949 422.113L548.461 421.24ZM519.121 424H518.121V425H519.121V424ZM519.121 381.52V380.52H518.121V381.52H519.121ZM532.441 393.16V392.16H531.441V393.16H532.441ZM532.441 412.12H531.441V413.12H532.441V412.12ZM536.821 382.52C541.124 382.52 544.835 383.391 547.984 385.099L548.938 383.341C545.448 381.449 541.398 380.52 536.821 380.52V382.52ZM547.989 385.101C551.188 386.815 553.626 389.183 555.33 392.21L557.073 391.23C555.176 387.857 552.454 385.225 548.933 383.339L547.989 385.101ZM555.33 392.21C557.036 395.244 557.901 398.712 557.901 402.64H559.901C559.901 398.408 558.966 394.596 557.073 391.23L555.33 392.21ZM557.901 402.64C557.901 406.526 557.037 409.996 555.327 413.074L557.075 414.046C558.965 410.644 559.901 406.834 559.901 402.64H557.901ZM555.327 413.074C553.621 416.146 551.177 418.574 547.973 420.367L548.949 422.113C552.465 420.146 555.181 417.454 557.075 414.046L555.327 413.074ZM547.976 420.365C544.828 422.11 541.12 423 536.821 423V425C541.402 425 545.454 424.05 548.946 422.115L547.976 420.365ZM536.821 423H519.121V425H536.821V423ZM520.121 424V381.52H518.121V424H520.121ZM519.121 382.52H536.821V380.52H519.121V382.52ZM535.621 413.12C538.809 413.12 541.455 412.244 543.443 410.392L542.079 408.928C540.547 410.356 538.433 411.12 535.621 411.12V413.12ZM543.443 410.392C545.457 408.515 546.401 405.88 546.401 402.64H544.401C544.401 405.48 543.586 407.525 542.079 408.928L543.443 410.392ZM546.401 402.64C546.401 399.4 545.457 396.765 543.443 394.888L542.079 396.352C543.586 397.755 544.401 399.8 544.401 402.64H546.401ZM543.443 394.888C541.455 393.036 538.809 392.16 535.621 392.16V394.16C538.433 394.16 540.547 394.924 542.079 396.352L543.443 394.888ZM535.621 392.16H532.441V394.16H535.621V392.16ZM531.441 393.16V412.12H533.441V393.16H531.441ZM532.441 413.12H535.621V411.12H532.441V413.12ZM635.106 381.52L636.081 381.743L636.361 380.52H635.106V381.52ZM625.386 424V425H626.183L626.361 424.223L625.386 424ZM608.826 424L607.846 424.2L608.01 425H608.826V424ZM603.906 399.88L604.886 399.68H602.926L603.906 399.88ZM598.986 424V425H599.803L599.966 424.2L598.986 424ZM582.426 424L581.451 424.223L581.629 425H582.426V424ZM572.706 381.52V380.52H571.452L571.731 381.743L572.706 381.52ZM587.046 381.52L588.036 381.378L587.913 380.52H587.046V381.52ZM590.886 408.28L589.896 408.422L591.864 408.49L590.886 408.28ZM596.646 381.52V380.52H595.839L595.669 381.31L596.646 381.52ZM611.166 381.52L612.144 381.31L611.974 380.52H611.166V381.52ZM616.926 408.28L615.949 408.49L617.916 408.422L616.926 408.28ZM620.766 381.52V380.52H619.9L619.776 381.378L620.766 381.52ZM634.131 381.297L624.411 423.777L626.361 424.223L636.081 381.743L634.131 381.297ZM625.386 423H608.826V425H625.386V423ZM609.806 423.8L604.886 399.68L602.926 400.08L607.846 424.2L609.806 423.8ZM602.926 399.68L598.006 423.8L599.966 424.2L604.886 400.08L602.926 399.68ZM598.986 423H582.426V425H598.986V423ZM583.401 423.777L573.681 381.297L571.731 381.743L581.451 424.223L583.401 423.777ZM572.706 382.52H587.046V380.52H572.706V382.52ZM586.056 381.662L589.896 408.422L591.876 408.138L588.036 381.378L586.056 381.662ZM591.864 408.49L597.624 381.73L595.669 381.31L589.909 408.07L591.864 408.49ZM596.646 382.52H611.166V380.52H596.646V382.52ZM610.189 381.73L615.949 408.49L617.904 408.07L612.144 381.31L610.189 381.73ZM617.916 408.422L621.756 381.662L619.776 381.378L615.936 408.138L617.916 408.422ZM620.766 382.52H635.106V380.52H620.766V382.52ZM649.543 421.6L649.05 422.47L649.055 422.473L649.543 421.6ZM649.543 383.62L650.028 384.495L650.031 384.493L649.543 383.62ZM671.563 383.62L671.07 384.49L671.078 384.495L671.563 383.62ZM679.423 391.36L678.557 391.861L678.562 391.868L679.423 391.36ZM679.423 413.8L678.562 413.292L678.557 413.299L679.423 413.8ZM671.503 421.6L671.015 420.727L671.01 420.73L671.503 421.6ZM666.703 409.48L667.462 410.131L667.47 410.122L666.703 409.48ZM666.703 395.68L665.936 396.322L665.944 396.331L666.703 395.68ZM654.403 395.68L655.162 396.331L655.17 396.322L654.403 395.68ZM654.403 409.48L653.636 410.122L653.644 410.131L654.403 409.48ZM660.583 423.42C656.747 423.42 653.236 422.521 650.031 420.727L649.055 422.473C652.57 424.439 656.419 425.42 660.583 425.42V423.42ZM650.036 420.73C646.87 418.937 644.356 416.463 642.484 413.292L640.762 414.308C642.81 417.777 645.576 420.503 649.05 422.47L650.036 420.73ZM642.484 413.292C640.622 410.138 639.683 406.576 639.683 402.58H637.683C637.683 406.904 638.704 410.822 640.762 414.308L642.484 413.292ZM639.683 402.58C639.683 398.584 640.622 395.022 642.484 391.868L640.762 390.852C638.704 394.338 637.683 398.256 637.683 402.58H639.683ZM642.484 391.868C644.355 388.699 646.866 386.247 650.028 384.495L649.058 382.745C645.58 384.673 642.811 387.381 640.762 390.852L642.484 391.868ZM650.031 384.493C653.236 382.699 656.747 381.8 660.583 381.8V379.8C656.419 379.8 652.57 380.781 649.055 382.747L650.031 384.493ZM660.583 381.8C664.419 381.8 667.908 382.699 671.07 384.49L672.056 382.75C668.578 380.781 664.747 379.8 660.583 379.8V381.8ZM671.078 384.495C674.238 386.246 676.727 388.696 678.557 391.861L680.288 390.859C678.279 387.384 675.528 384.674 672.048 382.745L671.078 384.495ZM678.562 391.868C680.424 395.022 681.363 398.584 681.363 402.58H683.363C683.363 398.256 682.342 394.338 680.284 390.852L678.562 391.868ZM681.363 402.58C681.363 406.576 680.424 410.138 678.562 413.292L680.284 414.308C682.342 410.822 683.363 406.904 683.363 402.58H681.363ZM678.557 413.299C676.728 416.463 674.218 418.935 671.015 420.727L671.991 422.473C675.507 420.505 678.278 417.777 680.288 414.301L678.557 413.299ZM671.01 420.73C667.846 422.521 664.377 423.42 660.583 423.42V425.42C664.709 425.42 668.519 424.439 671.996 422.47L671.01 420.73ZM660.583 413C663.453 413 665.795 412.076 667.462 410.131L665.944 408.829C664.73 410.244 662.993 411 660.583 411V413ZM667.47 410.122C669.099 408.176 669.863 405.627 669.863 402.58H667.863C667.863 405.293 667.187 407.344 665.936 408.838L667.47 410.122ZM669.863 402.58C669.863 399.499 669.101 396.942 667.462 395.029L665.944 396.331C667.184 397.778 667.863 399.821 667.863 402.58H669.863ZM667.47 395.038C665.805 393.05 663.461 392.1 660.583 392.1V394.1C662.985 394.1 664.72 394.87 665.936 396.322L667.47 395.038ZM660.583 392.1C657.67 392.1 655.303 393.046 653.636 395.038L655.17 396.322C656.382 394.874 658.135 394.1 660.583 394.1V392.1ZM653.644 395.029C652.004 396.942 651.243 399.499 651.243 402.58H653.243C653.243 399.821 653.921 397.778 655.162 396.331L653.644 395.029ZM651.243 402.58C651.243 405.627 652.007 408.176 653.636 410.122L655.17 408.838C653.919 407.344 653.243 405.293 653.243 402.58H651.243ZM653.644 410.131C655.313 412.079 657.678 413 660.583 413V411C658.127 411 656.372 410.241 655.162 408.829L653.644 410.131ZM708.528 424L707.642 424.464L707.923 425H708.528V424ZM700.548 408.76L701.434 408.296L701.153 407.76H700.548V408.76ZM700.488 408.76V407.76H699.488V408.76H700.488ZM700.488 424V425H701.488V424H700.488ZM687.168 424H686.168V425H687.168V424ZM687.168 381.52V380.52H686.168V381.52H687.168ZM715.788 383.38L715.335 384.272L715.347 384.277L715.788 383.38ZM721.248 388.36L720.378 388.853L720.383 388.862L720.389 388.872L721.248 388.36ZM720.708 403L719.899 402.412L719.892 402.422L720.708 403ZM713.928 407.74L713.619 406.789L712.452 407.167L713.059 408.234L713.928 407.74ZM723.168 424V425H724.886L724.037 423.506L723.168 424ZM700.488 399.88H699.488V400.88H700.488V399.88ZM708.648 399.04L709.306 399.793L709.319 399.781L709.332 399.77L708.648 399.04ZM708.588 393.64L707.881 394.347L707.892 394.358L707.903 394.368L708.588 393.64ZM700.488 392.68V391.68H699.488V392.68H700.488ZM709.414 423.536L701.434 408.296L699.662 409.224L707.642 424.464L709.414 423.536ZM700.548 407.76H700.488V409.76H700.548V407.76ZM699.488 408.76V424H701.488V408.76H699.488ZM700.488 423H687.168V425H700.488V423ZM688.168 424V381.52H686.168V424H688.168ZM687.168 382.52H706.968V380.52H687.168V382.52ZM706.968 382.52C710.29 382.52 713.067 383.119 715.335 384.271L716.241 382.489C713.629 381.161 710.526 380.52 706.968 380.52V382.52ZM715.347 384.277C717.628 385.399 719.288 386.928 720.378 388.853L722.118 387.867C720.808 385.552 718.828 383.761 716.229 382.483L715.347 384.277ZM720.389 388.872C721.528 390.783 722.108 392.963 722.108 395.44H724.108C724.108 392.637 723.447 390.097 722.107 387.848L720.389 388.872ZM722.108 395.44C722.108 398.079 721.369 400.391 719.899 402.412L721.517 403.588C723.247 401.209 724.108 398.481 724.108 395.44H722.108ZM719.892 402.422C718.475 404.42 716.407 405.885 713.619 406.789L714.236 408.691C717.369 407.675 719.821 405.98 721.524 403.578L719.892 402.422ZM713.059 408.234L722.299 424.494L724.037 423.506L714.797 407.246L713.059 408.234ZM723.168 423H708.528V425H723.168V423ZM700.488 400.88H705.768V398.88H700.488V400.88ZM705.768 400.88C707.172 400.88 708.411 400.576 709.306 399.793L707.989 398.287C707.605 398.624 706.924 398.88 705.768 398.88V400.88ZM709.332 399.77C710.245 398.913 710.608 397.68 710.608 396.28H708.608C708.608 397.36 708.331 397.967 707.964 398.31L709.332 399.77ZM710.608 396.28C710.608 394.944 710.194 393.778 709.273 392.912L707.903 394.368C708.342 394.782 708.608 395.376 708.608 396.28H710.608ZM709.295 392.933C708.407 392.045 707.173 391.68 705.768 391.68V393.68C706.843 393.68 707.489 393.955 707.881 394.347L709.295 392.933ZM705.768 391.68H700.488V393.68H705.768V391.68ZM699.488 392.68V399.88H701.488V392.68H699.488ZM753.043 424L752.213 424.557L752.51 425H753.043V424ZM740.683 405.58L741.514 405.023L739.683 402.295V405.58H740.683ZM740.683 424V425H741.683V424H740.683ZM727.363 424H726.363V425H727.363V424ZM727.363 381.52V380.52H726.363V381.52H727.363ZM740.683 381.52H741.683V380.52H740.683V381.52ZM740.683 399.4H739.683V402.644L741.51 399.963L740.683 399.4ZM752.863 381.52V380.52H752.335L752.037 380.957L752.863 381.52ZM767.923 381.52L768.735 382.104L769.875 380.52H767.923V381.52ZM753.283 401.86L752.472 401.276L752.056 401.854L752.466 402.436L753.283 401.86ZM768.883 424V425H770.811L769.701 423.424L768.883 424ZM753.874 423.443L741.514 405.023L739.853 406.137L752.213 424.557L753.874 423.443ZM739.683 405.58V424H741.683V405.58H739.683ZM740.683 423H727.363V425H740.683V423ZM728.363 424V381.52H726.363V424H728.363ZM727.363 382.52H740.683V380.52H727.363V382.52ZM739.683 381.52V399.4H741.683V381.52H739.683ZM741.51 399.963L753.69 382.083L752.037 380.957L739.857 398.837L741.51 399.963ZM752.863 382.52H767.923V380.52H752.863V382.52ZM767.112 380.936L752.472 401.276L754.095 402.444L768.735 382.104L767.112 380.936ZM752.466 402.436L768.066 424.576L769.701 423.424L754.101 401.284L752.466 402.436ZM768.883 423H753.043V425H768.883V423Z" fill="black"/>
</g>
</g>
</g>
<defs>
<clipPath id="clip0_1_35">
<rect width="1060" height="448" fill="white"/>
</clipPath>
</defs>
</svg>
